<svg xmlns="http://www.w3.org/2000/svg" xmlns:xlink="http://www.w3.org/1999/xlink" contentStyleType="text/css" data-diagram-type="SEQUENCE" height="1567px" preserveAspectRatio="none" style="width:1823px;height:1567px;background:#FFFFFF;" version="1.1" viewBox="0 0 1823 1567" width="1823px" zoomAndPan="magnify"><defs/><g><rect fill="none" height="236.0625" style="stroke:#000000;stroke-width:1.5;" width="1041.4419" x="10" y="314.3594"/><rect fill="none" height="162.7969" style="stroke:#000000;stroke-width:1.5;" width="1021.4419" x="20" y="380.625"/><rect fill="none" height="46.2656" style="stroke:#000000;stroke-width:1.5;" width="1273.9728" x="152.7714" y="912.8828"/><rect fill="none" height="46.2656" style="stroke:#000000;stroke-width:1.5;" width="1273.9728" x="152.7714" y="1103.6797"/><rect fill="none" height="133.6641" style="stroke:#000000;stroke-width:1.5;" width="1786.0147" x="20" y="1381.875"/><g><title>User</title><rect fill="#000000" fill-opacity="0.00000" height="1496.2422" width="8" x="48.9551" y="36.2969"/><line style="stroke:#181818;stroke-width:0.5;stroke-dasharray:5.0,5.0;" x1="52" x2="52" y1="36.2969" y2="1532.5391"/></g><g><title>App UI</title><rect fill="#000000" fill-opacity="0.00000" height="1496.2422" width="8" x="188.8598" y="36.2969"/><line style="stroke:#181818;stroke-width:0.5;stroke-dasharray:5.0,5.0;" x1="192.7714" x2="192.7714" y1="36.2969" y2="1532.5391"/></g><g><title>OnboardingController</title><rect fill="#000000" fill-opacity="0.00000" height="1496.2422" width="8" x="354.9859" y="36.2969"/><line style="stroke:#181818;stroke-width:0.5;stroke-dasharray:5.0,5.0;" x1="358.2915" x2="358.2915" y1="36.2969" y2="1532.5391"/></g><g><title>MonitoringService</title><rect fill="#000000" fill-opacity="0.00000" height="1496.2422" width="8" x="517.9844" y="36.2969"/><line style="stroke:#181818;stroke-width:0.5;stroke-dasharray:5.0,5.0;" x1="521.6802" x2="521.6802" y1="36.2969" y2="1532.5391"/></g><g><title>SleepService</title><rect fill="#000000" fill-opacity="0.00000" height="1496.2422" width="8" x="690.7124" y="36.2969"/><line style="stroke:#181818;stroke-width:0.5;stroke-dasharray:5.0,5.0;" x1="694.397" x2="694.397" y1="36.2969" y2="1532.5391"/></g><g><title>ActivityService</title><rect fill="#000000" fill-opacity="0.00000" height="1496.2422" width="8" x="812.1997" y="36.2969"/><line style="stroke:#181818;stroke-width:0.5;stroke-dasharray:5.0,5.0;" x1="816.0279" x2="816.0279" y1="36.2969" y2="1532.5391"/></g><g><title>NotificationService</title><rect fill="#000000" fill-opacity="0.00000" height="1496.2422" width="8" x="954.4068" y="36.2969"/><line style="stroke:#181818;stroke-width:0.5;stroke-dasharray:5.0,5.0;" x1="958.3716" x2="958.3716" y1="36.2969" y2="1532.5391"/></g><g><title>SettlementService</title><rect fill="#000000" fill-opacity="0.00000" height="1496.2422" width="8" x="1109.1099" y="36.2969"/><line style="stroke:#181818;stroke-width:0.5;stroke-dasharray:5.0,5.0;" x1="1112.4419" x2="1112.4419" y1="36.2969" y2="1532.5391"/></g><g><title>RewardService</title><rect fill="#000000" fill-opacity="0.00000" height="1496.2422" width="8" x="1353.3672" y="36.2969"/><line style="stroke:#181818;stroke-width:0.5;stroke-dasharray:5.0,5.0;" x1="1356.9903" x2="1356.9903" y1="36.2969" y2="1532.5391"/></g><g><title>CalendarDB</title><rect fill="#000000" fill-opacity="0.00000" height="1496.2422" width="8" x="1547.2749" y="36.2969"/><line style="stroke:#181818;stroke-width:0.5;stroke-dasharray:5.0,5.0;" x1="1550.6065" x2="1550.6065" y1="36.2969" y2="1532.5391"/></g><g><title>CollectionService</title><rect fill="#000000" fill-opacity="0.00000" height="1496.2422" width="8" x="1724.5201" y="36.2969"/><line style="stroke:#181818;stroke-width:0.5;stroke-dasharray:5.0,5.0;" x1="1728.0254" x2="1728.0254" y1="36.2969" y2="1532.5391"/></g><g class="participant participant-head" data-participant="User"><rect fill="#E2E2F0" height="30.2969" rx="2.5" ry="2.5" style="stroke:#181818;stroke-width:0.5;" width="45.9102" x="30" y="5"/><text fill="#000000" font-family="sans-serif" font-size="14" lengthAdjust="spacing" textLength="31.9102" x="37" y="24.9951">User</text></g><g class="participant participant-tail" data-participant="User"><rect fill="#E2E2F0" height="30.2969" rx="2.5" ry="2.5" style="stroke:#181818;stroke-width:0.5;" width="45.9102" x="30" y="1531.5391"/><text fill="#000000" font-family="sans-serif" font-size="14" lengthAdjust="spacing" textLength="31.9102" x="37" y="1551.5342">User</text></g><g class="participant participant-head" data-participant="UI"><rect fill="#E2E2F0" height="30.2969" rx="2.5" ry="2.5" style="stroke:#181818;stroke-width:0.5;" width="60.1768" x="162.7714" y="5"/><text fill="#000000" font-family="sans-serif" font-size="14" lengthAdjust="spacing" textLength="46.1768" x="169.7714" y="24.9951">App UI</text></g><g class="participant participant-tail" data-participant="UI"><rect fill="#E2E2F0" height="30.2969" rx="2.5" ry="2.5" style="stroke:#181818;stroke-width:0.5;" width="60.1768" x="162.7714" y="1531.5391"/><text fill="#000000" font-family="sans-serif" font-size="14" lengthAdjust="spacing" textLength="46.1768" x="169.7714" y="1551.5342">App UI</text></g><g class="participant participant-head" data-participant="OnboardingController"><rect fill="#E2E2F0" height="30.2969" rx="2.5" ry="2.5" style="stroke:#181818;stroke-width:0.5;" width="165.3887" x="276.2915" y="5"/><text fill="#000000" font-family="sans-serif" font-size="14" lengthAdjust="spacing" textLength="151.3887" x="283.2915" y="24.9951">OnboardingController</text></g><g class="participant participant-tail" data-participant="OnboardingController"><rect fill="#E2E2F0" height="30.2969" rx="2.5" ry="2.5" style="stroke:#181818;stroke-width:0.5;" width="165.3887" x="276.2915" y="1531.5391"/><text fill="#000000" font-family="sans-serif" font-size="14" lengthAdjust="spacing" textLength="151.3887" x="283.2915" y="1551.5342">OnboardingController</text></g><g class="participant participant-head" data-participant="MonitoringService"><rect fill="#E2E2F0" height="30.2969" rx="2.5" ry="2.5" style="stroke:#181818;stroke-width:0.5;" width="140.6084" x="451.6802" y="5"/><text fill="#000000" font-family="sans-serif" font-size="14" lengthAdjust="spacing" textLength="126.6084" x="458.6802" y="24.9951">MonitoringService</text></g><g class="participant participant-tail" data-participant="MonitoringService"><rect fill="#E2E2F0" height="30.2969" rx="2.5" ry="2.5" style="stroke:#181818;stroke-width:0.5;" width="140.6084" x="451.6802" y="1531.5391"/><text fill="#000000" font-family="sans-serif" font-size="14" lengthAdjust="spacing" textLength="126.6084" x="458.6802" y="1551.5342">MonitoringService</text></g><g class="participant participant-head" data-participant="SleepService"><rect fill="#E2E2F0" height="30.2969" rx="2.5" ry="2.5" style="stroke:#181818;stroke-width:0.5;" width="104.6309" x="642.397" y="5"/><text fill="#000000" font-family="sans-serif" font-size="14" lengthAdjust="spacing" textLength="90.6309" x="649.397" y="24.9951">SleepService</text></g><g class="participant participant-tail" data-participant="SleepService"><rect fill="#E2E2F0" height="30.2969" rx="2.5" ry="2.5" style="stroke:#181818;stroke-width:0.5;" width="104.6309" x="642.397" y="1531.5391"/><text fill="#000000" font-family="sans-serif" font-size="14" lengthAdjust="spacing" textLength="90.6309" x="649.397" y="1551.5342">SleepService</text></g><g class="participant participant-head" data-participant="ActivityService"><rect fill="#E2E2F0" height="30.2969" rx="2.5" ry="2.5" style="stroke:#181818;stroke-width:0.5;" width="118.3438" x="757.0279" y="5"/><text fill="#000000" font-family="sans-serif" font-size="14" lengthAdjust="spacing" textLength="104.3438" x="764.0279" y="24.9951">ActivityService</text></g><g class="participant participant-tail" data-participant="ActivityService"><rect fill="#E2E2F0" height="30.2969" rx="2.5" ry="2.5" style="stroke:#181818;stroke-width:0.5;" width="118.3438" x="757.0279" y="1531.5391"/><text fill="#000000" font-family="sans-serif" font-size="14" lengthAdjust="spacing" textLength="104.3438" x="764.0279" y="1551.5342">ActivityService</text></g><g class="participant participant-head" data-participant="NotificationService"><rect fill="#E2E2F0" height="30.2969" rx="2.5" ry="2.5" style="stroke:#181818;stroke-width:0.5;" width="146.0703" x="885.3716" y="5"/><text fill="#000000" font-family="sans-serif" font-size="14" lengthAdjust="spacing" textLength="132.0703" x="892.3716" y="24.9951">NotificationService</text></g><g class="participant participant-tail" data-participant="NotificationService"><rect fill="#E2E2F0" height="30.2969" rx="2.5" ry="2.5" style="stroke:#181818;stroke-width:0.5;" width="146.0703" x="885.3716" y="1531.5391"/><text fill="#000000" font-family="sans-serif" font-size="14" lengthAdjust="spacing" textLength="132.0703" x="892.3716" y="1551.5342">NotificationService</text></g><g class="participant participant-head" data-participant="SettlementService"><rect fill="#E2E2F0" height="30.2969" rx="2.5" ry="2.5" style="stroke:#181818;stroke-width:0.5;" width="143.3359" x="1041.4419" y="5"/><text fill="#000000" font-family="sans-serif" font-size="14" lengthAdjust="spacing" textLength="129.3359" x="1048.4419" y="24.9951">SettlementService</text></g><g class="participant participant-tail" data-participant="SettlementService"><rect fill="#E2E2F0" height="30.2969" rx="2.5" ry="2.5" style="stroke:#181818;stroke-width:0.5;" width="143.3359" x="1041.4419" y="1531.5391"/><text fill="#000000" font-family="sans-serif" font-size="14" lengthAdjust="spacing" textLength="129.3359" x="1048.4419" y="1551.5342">SettlementService</text></g><g class="participant participant-head" data-participant="RewardService"><rect fill="#E2E2F0" height="30.2969" rx="2.5" ry="2.5" style="stroke:#181818;stroke-width:0.5;" width="118.7539" x="1297.9903" y="5"/><text fill="#000000" font-family="sans-serif" font-size="14" lengthAdjust="spacing" textLength="104.7539" x="1304.9903" y="24.9951">RewardService</text></g><g class="participant participant-tail" data-participant="RewardService"><rect fill="#E2E2F0" height="30.2969" rx="2.5" ry="2.5" style="stroke:#181818;stroke-width:0.5;" width="118.7539" x="1297.9903" y="1531.5391"/><text fill="#000000" font-family="sans-serif" font-size="14" lengthAdjust="spacing" textLength="104.7539" x="1304.9903" y="1551.5342">RewardService</text></g><g class="participant participant-head" data-participant="CalendarDB"><rect fill="#E2E2F0" height="30.2969" rx="2.5" ry="2.5" style="stroke:#181818;stroke-width:0.5;" width="97.3369" x="1502.6065" y="5"/><text fill="#000000" font-family="sans-serif" font-size="14" lengthAdjust="spacing" textLength="83.3369" x="1509.6065" y="24.9951">CalendarDB</text></g><g class="participant participant-tail" data-participant="CalendarDB"><rect fill="#E2E2F0" height="30.2969" rx="2.5" ry="2.5" style="stroke:#181818;stroke-width:0.5;" width="97.3369" x="1502.6065" y="1531.5391"/><text fill="#000000" font-family="sans-serif" font-size="14" lengthAdjust="spacing" textLength="83.3369" x="1509.6065" y="1551.5342">CalendarDB</text></g><g class="participant participant-head" data-participant="CollectionService"><rect fill="#E2E2F0" height="30.2969" rx="2.5" ry="2.5" style="stroke:#181818;stroke-width:0.5;" width="134.9893" x="1661.0254" y="5"/><text fill="#000000" font-family="sans-serif" font-size="14" lengthAdjust="spacing" textLength="120.9893" x="1668.0254" y="24.9951">CollectionService</text></g><g class="participant participant-tail" data-participant="CollectionService"><rect fill="#E2E2F0" height="30.2969" rx="2.5" ry="2.5" style="stroke:#181818;stroke-width:0.5;" width="134.9893" x="1661.0254" y="1531.5391"/><text fill="#000000" font-family="sans-serif" font-size="14" lengthAdjust="spacing" textLength="120.9893" x="1668.0254" y="1551.5342">CollectionService</text></g><rect fill="#EEEEEE" height="3" style="stroke:#EEEEEE;stroke-width:1;" width="1816.0147" x="0" y="66.8633"/><line style="stroke:#000000;stroke-width:1;" x1="0" x2="1816.0147" y1="66.8633" y2="66.8633"/><line style="stroke:#000000;stroke-width:1;" x1="0" x2="1816.0147" y1="69.8633" y2="69.8633"/><rect fill="#EEEEEE" height="23.1328" style="stroke:#000000;stroke-width:2;" width="54.4059" x="880.8044" y="56.2969"/><text fill="#000000" font-family="sans-serif" font-size="13" font-weight="bold" lengthAdjust="spacing" textLength="35.88" x="886.8044" y="72.3638">&#50728;&#48372;&#46377;</text><g class="message" data-participant-1="User" data-participant-2="UI"><polygon fill="#181818" points="180.8598,106.5625,190.8598,110.5625,180.8598,114.5625,184.8598,110.5625" style="stroke:#181818;stroke-width:1;"/><line style="stroke:#181818;stroke-width:1;" x1="52.9551" x2="186.8598" y1="110.5625" y2="110.5625"/><text fill="#000000" font-family="sans-serif" font-size="13" lengthAdjust="spacing" textLength="40.0123" x="59.9551" y="105.4966">&#50545; &#49892;&#54665;</text></g><g class="message" data-participant-1="UI" data-participant-2="OnboardingController"><polygon fill="#181818" points="346.9859,135.6953,356.9859,139.6953,346.9859,143.6953,350.9859,139.6953" style="stroke:#181818;stroke-width:1;"/><line style="stroke:#181818;stroke-width:1;" x1="192.8598" x2="352.9859" y1="139.6953" y2="139.6953"/><text fill="#000000" font-family="sans-serif" font-size="13" lengthAdjust="spacing" textLength="71.1001" x="199.8598" y="134.6294">isFirstRun?</text></g><g class="message" data-participant-1="OnboardingController" data-participant-2="UI"><polygon fill="#181818" points="203.8598,164.8281,193.8598,168.8281,203.8598,172.8281,199.8598,168.8281" style="stroke:#181818;stroke-width:1;"/><line style="stroke:#181818;stroke-width:1;stroke-dasharray:2.0,2.0;" x1="197.8598" x2="357.9859" y1="168.8281" y2="168.8281"/><text fill="#000000" font-family="sans-serif" font-size="13" lengthAdjust="spacing" textLength="142.1261" x="209.8598" y="163.7622">show Onboarding &#54868;&#47732;</text></g><g class="message" data-participant-1="User" data-participant-2="UI"><polygon fill="#181818" points="180.8598,193.9609,190.8598,197.9609,180.8598,201.9609,184.8598,197.9609" style="stroke:#181818;stroke-width:1;"/><line style="stroke:#181818;stroke-width:1;" x1="52.9551" x2="186.8598" y1="197.9609" y2="197.9609"/><text fill="#000000" font-family="sans-serif" font-size="13" lengthAdjust="spacing" textLength="115.9047" x="59.9551" y="192.895">&#54532;&#47196;&#54596;&#183;&#52712;&#52840;&#49884;&#44036; &#49444;&#51221;</text></g><g class="message" data-participant-1="UI" data-participant-2="OnboardingController"><polygon fill="#181818" points="346.9859,223.0938,356.9859,227.0938,346.9859,231.0938,350.9859,227.0938" style="stroke:#181818;stroke-width:1;"/><line style="stroke:#181818;stroke-width:1;" x1="192.8598" x2="352.9859" y1="227.0938" y2="227.0938"/><text fill="#000000" font-family="sans-serif" font-size="13" lengthAdjust="spacing" textLength="86.4043" x="199.8598" y="222.0278">save settings</text></g><g class="message" data-participant-1="OnboardingController" data-participant-2="UI"><polygon fill="#181818" points="203.8598,252.2266,193.8598,256.2266,203.8598,260.2266,199.8598,256.2266" style="stroke:#181818;stroke-width:1;"/><line style="stroke:#181818;stroke-width:1;stroke-dasharray:2.0,2.0;" x1="197.8598" x2="357.9859" y1="256.2266" y2="256.2266"/><text fill="#000000" font-family="sans-serif" font-size="13" lengthAdjust="spacing" textLength="51.9724" x="209.8598" y="251.1606">&#49444;&#51221; &#50756;&#47308;</text></g><rect fill="#EEEEEE" height="3" style="stroke:#EEEEEE;stroke-width:1;" width="1816.0147" x="0" y="284.793"/><line style="stroke:#000000;stroke-width:1;" x1="0" x2="1816.0147" y1="284.793" y2="284.793"/><line style="stroke:#000000;stroke-width:1;" x1="0" x2="1816.0147" y1="287.793" y2="287.793"/><rect fill="#EEEEEE" height="23.1328" style="stroke:#000000;stroke-width:2;" width="251.4791" x="782.2678" y="274.2266"/><text fill="#000000" font-family="sans-serif" font-size="13" font-weight="bold" lengthAdjust="spacing" textLength="232.9532" x="788.2678" y="290.2935">&#48177;&#44536;&#46972;&#50868;&#46300; &#47784;&#45768;&#53552;&#47553; &amp; &#50508;&#47548; (&#48337;&#47148; loop)</text><path d="M10,314.3594 L86.624,314.3594 L86.624,321.4922 L76.624,331.4922 L10,331.4922 L10,314.3594" fill="#EEEEEE" style="stroke:#000000;stroke-width:1.5;"/><rect fill="none" height="236.0625" style="stroke:#000000;stroke-width:1.5;" width="1041.4419" x="10" y="314.3594"/><text fill="#000000" font-family="sans-serif" font-size="13" font-weight="bold" lengthAdjust="spacing" textLength="31.624" x="25" y="327.4263">loop</text><text fill="#000000" font-family="sans-serif" font-size="11" font-weight="bold" lengthAdjust="spacing" textLength="95.7237" x="101.624" y="326.5698">[&#47588; &#49345;&#53468;_&#52404;&#53356;_&#44036;&#44201;]</text><g class="message" data-participant-1="MonitoringService" data-participant-2="MonitoringService"><line style="stroke:#181818;stroke-width:1;" x1="521.9844" x2="563.9844" y1="352.625" y2="352.625"/><line style="stroke:#181818;stroke-width:1;" x1="563.9844" x2="563.9844" y1="352.625" y2="365.625"/><line style="stroke:#181818;stroke-width:1;" x1="522.9844" x2="563.9844" y1="365.625" y2="365.625"/><polygon fill="#181818" points="532.9844,361.625,522.9844,365.625,532.9844,369.625,528.9844,365.625" style="stroke:#181818;stroke-width:1;"/><text fill="#000000" font-family="sans-serif" font-size="13" lengthAdjust="spacing" textLength="158.728" x="528.9844" y="347.5591">&#49345;&#53468; &#44048;&#51648; (&#50505;&#51020;/&#45572;&#50880;/&#54256;&#49324;&#50857;)</text></g><path d="M20,380.625 L84.4429,380.625 L84.4429,387.7578 L74.4429,397.7578 L20,397.7578 L20,380.625" fill="#EEEEEE" style="stroke:#000000;stroke-width:1.5;"/><rect fill="none" height="162.7969" style="stroke:#000000;stroke-width:1.5;" width="1021.4419" x="20" y="380.625"/><text fill="#000000" font-family="sans-serif" font-size="13" font-weight="bold" lengthAdjust="spacing" textLength="19.4429" x="35" y="393.6919">alt</text><text fill="#000000" font-family="sans-serif" font-size="11" font-weight="bold" lengthAdjust="spacing" textLength="74.6038" x="99.4429" y="392.8354">[&#51076;&#44228;&#49884;&#44036; &#52488;&#44284;]</text><g class="message" data-participant-1="MonitoringService" data-participant-2="NotificationService"><polygon fill="#181818" points="946.4068,414.8906,956.4068,418.8906,946.4068,422.8906,950.4068,418.8906" style="stroke:#181818;stroke-width:1;"/><line style="stroke:#181818;stroke-width:1;" x1="521.9844" x2="952.4068" y1="418.8906" y2="418.8906"/><text fill="#000000" font-family="sans-serif" font-size="13" lengthAdjust="spacing" textLength="105.2822" x="528.9844" y="413.8247">sendAlert(state)</text></g><g class="message" data-participant-1="NotificationService" data-participant-2="UI"><polygon fill="#181818" points="203.8598,444.0234,193.8598,448.0234,203.8598,452.0234,199.8598,448.0234" style="stroke:#181818;stroke-width:1;"/><line style="stroke:#181818;stroke-width:1;" x1="197.8598" x2="957.4068" y1="448.0234" y2="448.0234"/><text fill="#000000" font-family="sans-serif" font-size="13" lengthAdjust="spacing" textLength="124.3125" x="209.8598" y="442.9575">display Alert(state)</text></g><g class="message" data-participant-1="UI" data-participant-2="User"><polygon fill="#181818" points="63.9551,473.1563,53.9551,477.1563,63.9551,481.1563,59.9551,477.1563" style="stroke:#181818;stroke-width:1;"/><line style="stroke:#181818;stroke-width:1;stroke-dasharray:2.0,2.0;" x1="57.9551" x2="191.8598" y1="477.1563" y2="477.1563"/><text fill="#000000" font-family="sans-serif" font-size="13" lengthAdjust="spacing" textLength="51.9724" x="69.9551" y="472.0903">&#50508;&#47548; &#54364;&#49884;</text></g><g class="message" data-participant-1="User" data-participant-2="UI"><polygon fill="#181818" points="180.8598,502.2891,190.8598,506.2891,180.8598,510.2891,184.8598,506.2891" style="stroke:#181818;stroke-width:1;"/><line style="stroke:#181818;stroke-width:1;" x1="52.9551" x2="186.8598" y1="506.2891" y2="506.2891"/><text fill="#000000" font-family="sans-serif" font-size="13" lengthAdjust="spacing" textLength="51.9724" x="59.9551" y="501.2231">&#54665;&#46041; &#48320;&#54868;</text></g><g class="message" data-participant-1="UI" data-participant-2="MonitoringService"><polygon fill="#181818" points="509.9844,531.4219,519.9844,535.4219,509.9844,539.4219,513.9844,535.4219" style="stroke:#181818;stroke-width:1;"/><line style="stroke:#181818;stroke-width:1;" x1="192.8598" x2="515.9844" y1="535.4219" y2="535.4219"/><text fill="#000000" font-family="sans-serif" font-size="13" lengthAdjust="spacing" textLength="152.9214" x="199.8598" y="530.356">notifyBehaviorChanged</text></g><rect fill="#EEEEEE" height="3" style="stroke:#EEEEEE;stroke-width:1;" width="1816.0147" x="0" y="577.9883"/><line style="stroke:#000000;stroke-width:1;" x1="0" x2="1816.0147" y1="577.9883" y2="577.9883"/><line style="stroke:#000000;stroke-width:1;" x1="0" x2="1816.0147" y1="580.9883" y2="580.9883"/><rect fill="#EEEEEE" height="23.1328" style="stroke:#000000;stroke-width:2;" width="213.1212" x="801.4467" y="567.4219"/><text fill="#000000" font-family="sans-serif" font-size="13" font-weight="bold" lengthAdjust="spacing" textLength="194.5954" x="807.4467" y="583.4888">&#51221;&#54644;&#51652; &#52712;&#52840; &#49884;&#44033; &#46020;&#45804; &#49884; &#44208;&#49328; &#54840;&#52636;</text><g class="message" data-participant-1="SleepService" data-participant-2="SettlementService"><polygon fill="#181818" points="1101.1099,617.6875,1111.1099,621.6875,1101.1099,625.6875,1105.1099,621.6875" style="stroke:#181818;stroke-width:1;"/><line style="stroke:#181818;stroke-width:1;" x1="694.7124" x2="1107.1099" y1="621.6875" y2="621.6875"/><text fill="#000000" font-family="sans-serif" font-size="13" lengthAdjust="spacing" textLength="126.0962" x="701.7124" y="616.6216">triggerSettlement()</text></g><g class="message" data-participant-1="SettlementService" data-participant-2="ActivityService"><polygon fill="#181818" points="827.1997,646.8203,817.1997,650.8203,827.1997,654.8203,823.1997,650.8203" style="stroke:#181818;stroke-width:1;"/><line style="stroke:#181818;stroke-width:1;" x1="821.1997" x2="1112.1099" y1="650.8203" y2="650.8203"/><text fill="#000000" font-family="sans-serif" font-size="13" lengthAdjust="spacing" textLength="135.5161" x="833.1997" y="645.7544">fetchActivityScores()</text></g><g class="message" data-participant-1="SettlementService" data-participant-2="SleepService"><polygon fill="#181818" points="705.7124,675.9531,695.7124,679.9531,705.7124,683.9531,701.7124,679.9531" style="stroke:#181818;stroke-width:1;"/><line style="stroke:#181818;stroke-width:1;" x1="699.7124" x2="1112.1099" y1="679.9531" y2="679.9531"/><text fill="#000000" font-family="sans-serif" font-size="13" lengthAdjust="spacing" textLength="125.7661" x="711.7124" y="674.8872">fetchSleepQuality()</text></g><g class="message" data-participant-1="SettlementService" data-participant-2="RewardService"><polygon fill="#181818" points="1345.3672,705.0859,1355.3672,709.0859,1345.3672,713.0859,1349.3672,709.0859" style="stroke:#181818;stroke-width:1;"/><line style="stroke:#181818;stroke-width:1;" x1="1113.1099" x2="1351.3672" y1="709.0859" y2="709.0859"/><text fill="#000000" font-family="sans-serif" font-size="13" lengthAdjust="spacing" textLength="220.2573" x="1120.1099" y="704.02">calculateEggType(scores, quality)</text></g><g class="message" data-participant-1="RewardService" data-participant-2="CalendarDB"><polygon fill="#181818" points="1539.2749,734.2188,1549.2749,738.2188,1539.2749,742.2188,1543.2749,738.2188" style="stroke:#181818;stroke-width:1;"/><line style="stroke:#181818;stroke-width:1;" x1="1357.3672" x2="1545.2749" y1="738.2188" y2="738.2188"/><text fill="#000000" font-family="sans-serif" font-size="13" lengthAdjust="spacing" textLength="169.9077" x="1364.3672" y="733.1528">recordEgg(user, eggType)</text></g><g class="message" data-participant-1="RewardService" data-participant-2="UI"><polygon fill="#181818" points="203.8598,763.3516,193.8598,767.3516,203.8598,771.3516,199.8598,767.3516" style="stroke:#181818;stroke-width:1;"/><line style="stroke:#181818;stroke-width:1;stroke-dasharray:2.0,2.0;" x1="197.8598" x2="1356.3672" y1="767.3516" y2="767.3516"/><text fill="#000000" font-family="sans-serif" font-size="13" lengthAdjust="spacing" textLength="192.5496" x="209.8598" y="762.2856">show &#44208;&#49328; &#50836;&#50557; (eggType, &#51216;&#49688;)</text></g><g class="message" data-participant-1="UI" data-participant-2="User"><polygon fill="#181818" points="63.9551,792.4844,53.9551,796.4844,63.9551,800.4844,59.9551,796.4844" style="stroke:#181818;stroke-width:1;"/><line style="stroke:#181818;stroke-width:1;stroke-dasharray:2.0,2.0;" x1="57.9551" x2="191.8598" y1="796.4844" y2="796.4844"/><text fill="#000000" font-family="sans-serif" font-size="13" lengthAdjust="spacing" textLength="51.9724" x="69.9551" y="791.4185">&#44208;&#49328; &#50508;&#47548;</text></g><rect fill="#EEEEEE" height="3" style="stroke:#EEEEEE;stroke-width:1;" width="1816.0147" x="0" y="825.0508"/><line style="stroke:#000000;stroke-width:1;" x1="0" x2="1816.0147" y1="825.0508" y2="825.0508"/><line style="stroke:#000000;stroke-width:1;" x1="0" x2="1816.0147" y1="828.0508" y2="828.0508"/><rect fill="#EEEEEE" height="23.1328" style="stroke:#000000;stroke-width:2;" width="115.8236" x="850.0956" y="814.4844"/><text fill="#000000" font-family="sans-serif" font-size="13" font-weight="bold" lengthAdjust="spacing" textLength="97.2977" x="856.0956" y="830.5513">&#55152; &#50508; &#44648;&#44592; &#54540;&#47196;&#50864;</text><g class="message" data-participant-1="User" data-participant-2="UI"><polygon fill="#181818" points="180.8598,864.75,190.8598,868.75,180.8598,872.75,184.8598,868.75" style="stroke:#181818;stroke-width:1;"/><line style="stroke:#181818;stroke-width:1;" x1="52.9551" x2="186.8598" y1="868.75" y2="868.75"/><text fill="#000000" font-family="sans-serif" font-size="13" lengthAdjust="spacing" textLength="56.1047" x="59.9551" y="863.6841">&#53552;&#52824; &#55152; &#50508;</text></g><g class="message" data-participant-1="UI" data-participant-2="RewardService"><polygon fill="#181818" points="1345.3672,893.8828,1355.3672,897.8828,1345.3672,901.8828,1349.3672,897.8828" style="stroke:#181818;stroke-width:1;"/><line style="stroke:#181818;stroke-width:1;" x1="192.8598" x2="1351.3672" y1="897.8828" y2="897.8828"/><text fill="#000000" font-family="sans-serif" font-size="13" lengthAdjust="spacing" textLength="73.3662" x="199.8598" y="892.8169">shakeEgg()</text></g><path d="M152.7714,912.8828 L229.3954,912.8828 L229.3954,920.0156 L219.3954,930.0156 L152.7714,930.0156 L152.7714,912.8828" fill="#EEEEEE" style="stroke:#000000;stroke-width:1.5;"/><rect fill="none" height="46.2656" style="stroke:#000000;stroke-width:1.5;" width="1273.9728" x="152.7714" y="912.8828"/><text fill="#000000" font-family="sans-serif" font-size="13" font-weight="bold" lengthAdjust="spacing" textLength="31.624" x="167.7714" y="925.9497">loop</text><text fill="#000000" font-family="sans-serif" font-size="11" font-weight="bold" lengthAdjust="spacing" textLength="75.0641" x="244.3954" y="925.0933">[&#53552;&#52824;&#54943;&#49688; &lt; 3]</text><g class="message" data-participant-1="RewardService" data-participant-2="UI"><polygon fill="#181818" points="203.8598,947.1484,193.8598,951.1484,203.8598,955.1484,199.8598,951.1484" style="stroke:#181818;stroke-width:1;"/><line style="stroke:#181818;stroke-width:1;stroke-dasharray:2.0,2.0;" x1="197.8598" x2="1356.3672" y1="951.1484" y2="951.1484"/><text fill="#000000" font-family="sans-serif" font-size="13" lengthAdjust="spacing" textLength="99.8124" x="209.8598" y="946.0825">&#55124;&#46308;&#44592; &#50528;&#45768;&#47700;&#51060;&#49496;</text></g><g class="message" data-participant-1="RewardService" data-participant-2="UI"><polygon fill="#181818" points="203.8598,983.2813,193.8598,987.2813,203.8598,991.2813,199.8598,987.2813" style="stroke:#181818;stroke-width:1;"/><line style="stroke:#181818;stroke-width:1;stroke-dasharray:2.0,2.0;" x1="197.8598" x2="1356.3672" y1="987.2813" y2="987.2813"/><text fill="#000000" font-family="sans-serif" font-size="13" lengthAdjust="spacing" textLength="198.9943" x="209.8598" y="982.2153">&#50640;&#44592; &#46321;&#51109; &#50528;&#45768;&#47700;&#51060;&#49496; + &#52488;&#44592; &#50640;&#45320;&#51648;</text></g><rect fill="#EEEEEE" height="3" style="stroke:#EEEEEE;stroke-width:1;" width="1816.0147" x="0" y="1015.8477"/><line style="stroke:#000000;stroke-width:1;" x1="0" x2="1816.0147" y1="1015.8477" y2="1015.8477"/><line style="stroke:#000000;stroke-width:1;" x1="0" x2="1816.0147" y1="1018.8477" y2="1018.8477"/><rect fill="#EEEEEE" height="23.1328" style="stroke:#000000;stroke-width:2;" width="147.1777" x="834.4185" y="1005.2813"/><text fill="#000000" font-family="sans-serif" font-size="13" font-weight="bold" lengthAdjust="spacing" textLength="128.6518" x="840.4185" y="1021.3481">&#52880;&#47533;&#53552; &#49345;&#54840;&#51089;&#50857; &#54540;&#47196;&#50864;</text><g class="message" data-participant-1="User" data-participant-2="UI"><polygon fill="#181818" points="180.8598,1055.5469,190.8598,1059.5469,180.8598,1063.5469,184.8598,1059.5469" style="stroke:#181818;stroke-width:1;"/><line style="stroke:#181818;stroke-width:1;" x1="52.9551" x2="186.8598" y1="1059.5469" y2="1059.5469"/><text fill="#000000" font-family="sans-serif" font-size="13" lengthAdjust="spacing" textLength="63.9324" x="59.9551" y="1054.481">&#53552;&#52824; &#52880;&#47533;&#53552;</text></g><g class="message" data-participant-1="UI" data-participant-2="RewardService"><polygon fill="#181818" points="1345.3672,1084.6797,1355.3672,1088.6797,1345.3672,1092.6797,1349.3672,1088.6797" style="stroke:#181818;stroke-width:1;"/><line style="stroke:#181818;stroke-width:1;" x1="192.8598" x2="1351.3672" y1="1088.6797" y2="1088.6797"/><text fill="#000000" font-family="sans-serif" font-size="13" lengthAdjust="spacing" textLength="124.8267" x="199.8598" y="1083.6138">interactCharacter()</text></g><path d="M152.7714,1103.6797 L229.3954,1103.6797 L229.3954,1110.8125 L219.3954,1120.8125 L152.7714,1120.8125 L152.7714,1103.6797" fill="#EEEEEE" style="stroke:#000000;stroke-width:1.5;"/><rect fill="none" height="46.2656" style="stroke:#000000;stroke-width:1.5;" width="1273.9728" x="152.7714" y="1103.6797"/><text fill="#000000" font-family="sans-serif" font-size="13" font-weight="bold" lengthAdjust="spacing" textLength="31.624" x="167.7714" y="1116.7466">loop</text><text fill="#000000" font-family="sans-serif" font-size="11" font-weight="bold" lengthAdjust="spacing" textLength="75.0641" x="244.3954" y="1115.8901">[&#53552;&#52824;&#54943;&#49688; &lt; 6]</text><g class="message" data-participant-1="RewardService" data-participant-2="UI"><polygon fill="#181818" points="203.8598,1137.9453,193.8598,1141.9453,203.8598,1145.9453,199.8598,1141.9453" style="stroke:#181818;stroke-width:1;"/><line style="stroke:#181818;stroke-width:1;stroke-dasharray:2.0,2.0;" x1="197.8598" x2="1356.3672" y1="1141.9453" y2="1141.9453"/><text fill="#000000" font-family="sans-serif" font-size="13" lengthAdjust="spacing" textLength="162.0532" x="209.8598" y="1136.8794">&#48152;&#51025; &#50528;&#45768;&#47700;&#51060;&#49496; + &#50640;&#45320;&#51648;+5</text></g><g class="message" data-participant-1="RewardService" data-participant-2="UI"><polygon fill="#181818" points="203.8598,1174.0781,193.8598,1178.0781,203.8598,1182.0781,199.8598,1178.0781" style="stroke:#181818;stroke-width:1;"/><line style="stroke:#181818;stroke-width:1;stroke-dasharray:2.0,2.0;" x1="197.8598" x2="1356.3672" y1="1178.0781" y2="1178.0781"/><text fill="#000000" font-family="sans-serif" font-size="13" lengthAdjust="spacing" textLength="72.2034" x="209.8598" y="1173.0122">&#53224;&#45796;&#50868; 1&#49884;&#44036;</text></g><rect fill="#EEEEEE" height="3" style="stroke:#EEEEEE;stroke-width:1;" width="1816.0147" x="0" y="1206.6445"/><line style="stroke:#000000;stroke-width:1;" x1="0" x2="1816.0147" y1="1206.6445" y2="1206.6445"/><line style="stroke:#000000;stroke-width:1;" x1="0" x2="1816.0147" y1="1209.6445" y2="1209.6445"/><rect fill="#EEEEEE" height="23.1328" style="stroke:#000000;stroke-width:2;" width="82.8518" x="866.5814" y="1196.0781"/><text fill="#000000" font-family="sans-serif" font-size="13" font-weight="bold" lengthAdjust="spacing" textLength="64.3259" x="872.5814" y="1212.145">&#52972;&#47113;&#49496; &#51312;&#54924;</text><g class="message" data-participant-1="User" data-participant-2="UI"><polygon fill="#181818" points="180.8598,1246.3438,190.8598,1250.3438,180.8598,1254.3438,184.8598,1250.3438" style="stroke:#181818;stroke-width:1;"/><line style="stroke:#181818;stroke-width:1;" x1="52.9551" x2="186.8598" y1="1250.3438" y2="1250.3438"/><text fill="#000000" font-family="sans-serif" font-size="13" lengthAdjust="spacing" textLength="80.0247" x="59.9551" y="1245.2778">&#52972;&#47113;&#49496; &#53485; &#50676;&#44592;</text></g><g class="message" data-participant-1="UI" data-participant-2="CollectionService"><polygon fill="#181818" points="1716.5201,1275.4766,1726.5201,1279.4766,1716.5201,1283.4766,1720.5201,1279.4766" style="stroke:#181818;stroke-width:1;"/><line style="stroke:#181818;stroke-width:1;" x1="192.8598" x2="1722.5201" y1="1279.4766" y2="1279.4766"/><text fill="#000000" font-family="sans-serif" font-size="13" lengthAdjust="spacing" textLength="125.4233" x="199.8598" y="1274.4106">getUserCollection()</text></g><g class="message" data-participant-1="CollectionService" data-participant-2="CalendarDB"><polygon fill="#181818" points="1562.2749,1304.6094,1552.2749,1308.6094,1562.2749,1312.6094,1558.2749,1308.6094" style="stroke:#181818;stroke-width:1;"/><line style="stroke:#181818;stroke-width:1;" x1="1556.2749" x2="1727.5201" y1="1308.6094" y2="1308.6094"/><text fill="#000000" font-family="sans-serif" font-size="13" lengthAdjust="spacing" textLength="153.2451" x="1568.2749" y="1303.5435">queryEggRecords(user)</text></g><g class="message" data-participant-1="CollectionService" data-participant-2="UI"><polygon fill="#181818" points="203.8598,1333.7422,193.8598,1337.7422,203.8598,1341.7422,199.8598,1337.7422" style="stroke:#181818;stroke-width:1;"/><line style="stroke:#181818;stroke-width:1;stroke-dasharray:2.0,2.0;" x1="197.8598" x2="1727.5201" y1="1337.7422" y2="1337.7422"/><text fill="#000000" font-family="sans-serif" font-size="13" lengthAdjust="spacing" textLength="108.3279" x="209.8598" y="1332.6763">return &#52972;&#47113;&#49496; &#47785;&#47197;</text></g><g class="message" data-participant-1="UI" data-participant-2="User"><polygon fill="#181818" points="63.9551,1362.875,53.9551,1366.875,63.9551,1370.875,59.9551,1366.875" style="stroke:#181818;stroke-width:1;"/><line style="stroke:#181818;stroke-width:1;stroke-dasharray:2.0,2.0;" x1="57.9551" x2="191.8598" y1="1366.875" y2="1366.875"/><text fill="#000000" font-family="sans-serif" font-size="13" lengthAdjust="spacing" textLength="81.4138" x="69.9551" y="1361.8091">&#52972;&#47113;&#49496; UI &#54364;&#49884;</text></g><path d="M20,1381.875 L84.4429,1381.875 L84.4429,1389.0078 L74.4429,1399.0078 L20,1399.0078 L20,1381.875" fill="#EEEEEE" style="stroke:#000000;stroke-width:1.5;"/><rect fill="none" height="133.6641" style="stroke:#000000;stroke-width:1.5;" width="1786.0147" x="20" y="1381.875"/><text fill="#000000" font-family="sans-serif" font-size="13" font-weight="bold" lengthAdjust="spacing" textLength="19.4429" x="35" y="1394.9419">alt</text><text fill="#000000" font-family="sans-serif" font-size="11" font-weight="bold" lengthAdjust="spacing" textLength="54.364" x="99.4429" y="1394.0854">[&#50640;&#44592; &#49440;&#53469;]</text><g class="message" data-participant-1="User" data-participant-2="UI"><polygon fill="#181818" points="180.8598,1416.1406,190.8598,1420.1406,180.8598,1424.1406,184.8598,1420.1406" style="stroke:#181818;stroke-width:1;"/><line style="stroke:#181818;stroke-width:1;" x1="52.9551" x2="186.8598" y1="1420.1406" y2="1420.1406"/><text fill="#000000" font-family="sans-serif" font-size="13" lengthAdjust="spacing" textLength="96.1924" x="59.9551" y="1415.0747">click EggDetail</text></g><g class="message" data-participant-1="UI" data-participant-2="CollectionService"><polygon fill="#181818" points="1716.5201,1445.2734,1726.5201,1449.2734,1716.5201,1453.2734,1720.5201,1449.2734" style="stroke:#181818;stroke-width:1;"/><line style="stroke:#181818;stroke-width:1;" x1="192.8598" x2="1722.5201" y1="1449.2734" y2="1449.2734"/><text fill="#000000" font-family="sans-serif" font-size="13" lengthAdjust="spacing" textLength="106.3677" x="199.8598" y="1444.2075">getEggDetail(id)</text></g><g class="message" data-participant-1="CollectionService" data-participant-2="UI"><polygon fill="#181818" points="203.8598,1474.4063,193.8598,1478.4063,203.8598,1482.4063,199.8598,1478.4063" style="stroke:#181818;stroke-width:1;"/><line style="stroke:#181818;stroke-width:1;stroke-dasharray:2.0,2.0;" x1="197.8598" x2="1727.5201" y1="1478.4063" y2="1478.4063"/><text fill="#000000" font-family="sans-serif" font-size="13" lengthAdjust="spacing" textLength="92.2355" x="209.8598" y="1473.3403">return &#49345;&#49464;&#51221;&#48372;</text></g><g class="message" data-participant-1="UI" data-participant-2="User"><polygon fill="#181818" points="63.9551,1503.5391,53.9551,1507.5391,63.9551,1511.5391,59.9551,1507.5391" style="stroke:#181818;stroke-width:1;"/><line style="stroke:#181818;stroke-width:1;stroke-dasharray:2.0,2.0;" x1="57.9551" x2="191.8598" y1="1507.5391" y2="1507.5391"/><text fill="#000000" font-family="sans-serif" font-size="13" lengthAdjust="spacing" textLength="75.8924" x="69.9551" y="1502.4731">&#49345;&#49464;&#51221;&#48372; &#54364;&#49884;</text></g><!--SRC=[ZLLHRnf747w_Np7AGmIAewYgseUeQUGuhTI7jghJF4VNOmEhNE_8tUA8DrEk4fQHZ6L8C0KNgpI6Y4XdWsgxTLMfF-TsxpzqTW73SOTJ90ItCz_ip3VVpELrXr63vdMBmLENE5f-uU3MUZuFJx-w1RgBFn7JjzOFjkvag9NTi2tcsAQvXFtQjYYp7NHuGfmjQf28zOb9I3x9i6umkaLPCSdsZSteSsheZDfMOb32c4b-91PBicwILvXmacL3DucLqPt7ZwB7iYXZyJBjmGCGpJuVZNbz0FYWIShWxkV83jm7qJW5iTiBN-ze-8odIIIX7tM_f8xBDWlMGotHvUuiefkpNor4WV2mpWVZwArXtUF7xR3X_NikpllYiYzssu7lWV1wejkuEHDNtoBW8creS3-GooGUY4EF_rPLL73_D3Y_u9qhqHhpWpRmTts-Mmazdv-Ku3RIKULlho35H_kyEmJJjlDf94sJVu2Vz42KIs6v_KoSZSFIy1dc79mDDC1FJ3koXFZX_Ma42FoQEDc6b6ZiY4xr7gzuufVjU-6UBtuQYjOWhOBg9WDnv0KZRqRGk1AChfHjvQK9afEqeLpMaHoMSfdEIFewHfBxZByCTVEcNeH4eEoIT7HLMwRCXVjjJ7Nk4-dwwns-TmXyj8sQY8H9PigIcHKVaPo-HMrd8wTRMP9HEAn5arybxcuZR8p52PAZf0IAgXBmFO_l3kKJ16V8gWzXyqByqPRjN1nbUNji2l5svj1ibZXpKogjnVqGl3J-27rEc96xFZPiXxYhm95CfaXrzbr1Dn6z2XVP30WqTDCecDYVBxBPxujvadBLjMlmSX8dhKKH66A-GX3l4FJF83XLm9Qj0Pc4YS4YKpxbLRJgel4tfAQODMn9JLIQQIsga9ct4efgNTXHZn1SzeCBx4-zYbj1j7pPegXoF5zSDcV-q_smJ86Rqr_8yf4oDQuJKDZw5NE1p-1ZfPmLvOITEZ_eoIH4euiBWG_geZCMFpULp5Q0n9kQHF23Kt7q-p8GxgXXbH7VrBXNmM6VoFNF6d_x7dDJYm0LURIFu_xXsgznAwgd5YEERZ0S4_b3d1KqV7eJ3TnlYiv-KYcp6kvySYCZ_-0sxU5gXOyc2sjIybz3tjsHWSIn7xQgiHBd3c7vFTurHjgcPSPUQEYU9Kp2voOiDUwthF2N1U8KKHwRIkckqdaYRfQLGrZ1iHQIu-y6_BYpfEgv6S-dsq-jxOauXDSDonqjjWiDanel0DDvJ9XEJMs-2LTKVEsQefd93luVgPTBmhl01OblVorXPI-OPwaZN_y1]--></g></svg>