<svg xmlns="http://www.w3.org/2000/svg" xmlns:xlink="http://www.w3.org/1999/xlink" contentStyleType="text/css" data-diagram-type="ACTIVITY" height="2557px" preserveAspectRatio="none" style="width:1120px;height:2557px;background:#FFFFFF;" version="1.1" viewBox="0 0 1120 2557" width="1120px" zoomAndPan="magnify"><title>Eggi &#50545; &#50976;&#51200; &#54540;&#47196;&#50864; (&#50629;&#45936;&#51060;&#53944;)</title><defs/><g><g class="title" data-source-line="1"><text fill="#000000" font-family="sans-serif" font-size="14" font-weight="bold" lengthAdjust="spacing" textLength="195.4977" x="460.9578" y="32.9951">Eggi &#50545; &#50976;&#51200; &#54540;&#47196;&#50864; (&#50629;&#45936;&#51060;&#53944;)</text></g><ellipse cx="570.2066" cy="57.2969" fill="#222222" rx="10" ry="10" style="stroke:#222222;stroke-width:1;"/><rect fill="#F1F1F1" height="33.9688" rx="12.5" ry="12.5" style="stroke:#181818;stroke-width:0.5;" width="93.8694" x="523.2719" y="87.2969"/><text fill="#000000" font-family="sans-serif" font-size="12" lengthAdjust="spacing" textLength="73.8694" x="533.2719" y="108.4355">&#50545; &#49828;&#53664;&#50612; &#51217;&#49549;</text><rect fill="#F1F1F1" height="33.9688" rx="12.5" ry="12.5" style="stroke:#181818;stroke-width:0.5;" width="182.5934" x="478.9099" y="141.2656"/><text fill="#000000" font-family="sans-serif" font-size="12" lengthAdjust="spacing" textLength="162.5934" x="488.9099" y="162.4043">&#47784;&#48148;&#51068;&#183;&#50892;&#52824; &#50545; &#45796;&#50868;&#47196;&#46300; &#48143; &#49444;&#52824;</text><rect fill="#F1F1F1" height="33.9688" rx="12.5" ry="12.5" style="stroke:#181818;stroke-width:0.5;" width="56.9347" x="541.7393" y="195.2344"/><text fill="#000000" font-family="sans-serif" font-size="12" lengthAdjust="spacing" textLength="36.9347" x="551.7393" y="216.373">&#50545; &#49892;&#54665;</text><rect fill="#F1F1F1" height="33.9688" rx="12.5" ry="12.5" style="stroke:#181818;stroke-width:0.5;" width="79.0149" x="530.6992" y="297.6055"/><text fill="#000000" font-family="sans-serif" font-size="12" lengthAdjust="spacing" textLength="59.0149" x="540.6992" y="318.7441">&#54532;&#47196;&#54596; &#49444;&#51221;</text><rect fill="#F1F1F1" height="33.9688" rx="12.5" ry="12.5" style="stroke:#181818;stroke-width:0.5;" width="172.0103" x="484.2014" y="366.5742"/><text fill="#000000" font-family="sans-serif" font-size="12" lengthAdjust="spacing" textLength="152.0103" x="494.2014" y="387.7129">&#55148;&#47581; &#44592;&#49345;/&#52712;&#52840;/&#49885;&#49324; &#49884;&#44036; &#49444;&#51221;</text><polygon fill="#F1F1F1" points="540.2393,249.2031,600.1739,249.2031,612.1739,261.2031,600.1739,273.2031,540.2393,273.2031,528.2393,261.2031,540.2393,249.2031" style="stroke:#181818;stroke-width:0.5;"/><text fill="#000000" font-family="sans-serif" font-size="11" lengthAdjust="spacing" textLength="10.1199" x="574.2066" y="283.4136">&#50696;</text><text fill="#000000" font-family="sans-serif" font-size="11" lengthAdjust="spacing" textLength="59.9346" x="540.2393" y="265.0112">&#52395; &#49892;&#54665;&#51064;&#44032;?</text><polygon fill="#F1F1F1" points="570.2066,420.543,582.2066,432.543,570.2066,444.543,558.2066,432.543,570.2066,420.543" style="stroke:#181818;stroke-width:0.5;"/><rect fill="#F1F1F1" height="33.9688" rx="12.5" ry="12.5" style="stroke:#181818;stroke-width:0.5;" width="104.9095" x="517.7519" y="464.543"/><text fill="#000000" font-family="sans-serif" font-size="12" lengthAdjust="spacing" textLength="84.9095" x="527.7519" y="485.6816">&#54856; &#45824;&#49884;&#48372;&#46300; &#51652;&#51077;</text><rect fill="none" height="136.2344" style="stroke:#000000;stroke-width:1.5;" width="290.8738" x="424.7697" y="508.5117"/><path d="M518.5988,508.5117 L518.5988,517.8086 L508.5988,527.8086 L424.7697,527.8086" fill="none" style="stroke:#000000;stroke-width:1.5;"/><text fill="#000000" font-family="sans-serif" font-size="14" lengthAdjust="spacing" textLength="83.8291" x="427.7697" y="522.5068">Background</text><rect fill="#F1F1F1" height="33.9688" rx="12.5" ry="12.5" style="stroke:#181818;stroke-width:0.5;" width="180.9107" x="479.7513" y="544.8086"/><text fill="#000000" font-family="sans-serif" font-size="12" lengthAdjust="spacing" textLength="160.9107" x="489.7513" y="565.9473">&#54876;&#46041; &amp; &#49688;&#47732; &#51088;&#46041; &#47784;&#45768;&#53552;&#47553; &#49884;&#51089;</text><rect fill="#F1F1F1" height="33.9688" rx="12.5" ry="12.5" style="stroke:#181818;stroke-width:0.5;" width="270.8738" x="434.7697" y="598.7773"/><text fill="#000000" font-family="sans-serif" font-size="12" lengthAdjust="spacing" textLength="250.8738" x="444.7697" y="619.916">&#49345;&#53468; &#50976;&#51648; &#49884;&#44036; &#49444;&#51221; (&#44592;&#48376; 30&#48516;, 10&#48516; &#45800;&#50948; &#51312;&#51221;)</text><rect fill="#555555" height="6" rx="2.5" ry="2.5" style="stroke:#555555;stroke-width:1;" width="1098.4132" x="11" y="664.7461"/><rect fill="#F1F1F1" height="33.9688" rx="12.5" ry="12.5" style="stroke:#181818;stroke-width:0.5;" width="107.0413" x="36.4798" y="773.6328"/><text fill="#000000" font-family="sans-serif" font-size="12" lengthAdjust="spacing" textLength="87.0413" x="46.4798" y="794.7715">&#48120;&#49496; &#54869;&#51064; &amp; &#50756;&#47308;</text><polygon fill="#F1F1F1" points="35,725.2305,145.0009,725.2305,157.0009,737.2305,145.0009,749.2305,35,749.2305,23,737.2305,35,725.2305" style="stroke:#181818;stroke-width:0.5;"/><text fill="#000000" font-family="sans-serif" font-size="11" lengthAdjust="spacing" textLength="10.1199" x="94.0004" y="759.4409">&#50696;</text><text fill="#000000" font-family="sans-serif" font-size="11" lengthAdjust="spacing" textLength="110.0009" x="35" y="741.0386">&#49324;&#50857;&#51088; &#8594; &#48120;&#49496; &#53485; &#50676;&#44592;?</text><polygon fill="#F1F1F1" points="90.0004,832.0039,102.0004,844.0039,90.0004,856.0039,78.0004,844.0039,90.0004,832.0039" style="stroke:#181818;stroke-width:0.5;"/><rect fill="#F1F1F1" height="33.9688" rx="12.5" ry="12.5" style="stroke:#181818;stroke-width:0.5;" width="190.7603" x="219.0927" y="739.1484"/><text fill="#000000" font-family="sans-serif" font-size="12" lengthAdjust="spacing" textLength="170.7603" x="229.0927" y="760.2871">&#8220;&#51068;&#50612;&#45208;&#49464;&#50836;!&#8221; &#50508;&#47548; (&#47784;&#48148;&#51068;/&#50892;&#52824;)</text><rect fill="#F1F1F1" height="33.9688" rx="12.5" ry="12.5" style="stroke:#181818;stroke-width:0.5;" width="262.944" x="183.0009" y="808.1172"/><text fill="#000000" font-family="sans-serif" font-size="12" lengthAdjust="spacing" textLength="242.944" x="193.0009" y="829.2559">&#54665;&#46041; &#48320;&#54868; &#44048;&#51648; &#8594; &#50640;&#45320;&#51648; 10&#51216; + &#8220;&#50575;&#54840;~&#8221; &#48152;&#51025;</text><polygon fill="#F1F1F1" points="242.9958,690.7461,385.9499,690.7461,397.9499,702.7461,385.9499,714.7461,242.9958,714.7461,230.9958,702.7461,242.9958,690.7461" style="stroke:#181818;stroke-width:0.5;"/><text fill="#000000" font-family="sans-serif" font-size="11" lengthAdjust="spacing" textLength="10.1199" x="318.4729" y="724.9565">&#50696;</text><text fill="#000000" font-family="sans-serif" font-size="11" lengthAdjust="spacing" textLength="142.9541" x="242.9958" y="706.5542">&#45572;&#50880; &#49345;&#53468; &#51648;&#49549; &gt;= &#49444;&#51221; &#49884;&#44036;?</text><polygon fill="#F1F1F1" points="314.4729,866.4883,326.4729,878.4883,314.4729,890.4883,302.4729,878.4883,314.4729,866.4883" style="stroke:#181818;stroke-width:0.5;"/><rect fill="#F1F1F1" height="33.9688" rx="12.5" ry="12.5" style="stroke:#181818;stroke-width:0.5;" width="257.4041" x="508.7148" y="739.1484"/><text fill="#000000" font-family="sans-serif" font-size="12" lengthAdjust="spacing" textLength="237.4041" x="518.7148" y="760.2871">&#8220;&#50640;&#44592;&#44032; &#45580;&#47084; &#48537;&#44256; &#51080;&#50612;&#50836;!&#8221; &#50508;&#47548; (&#47784;&#48148;&#51068;/&#50892;&#52824;)</text><rect fill="#F1F1F1" height="33.9688" rx="12.5" ry="12.5" style="stroke:#181818;stroke-width:0.5;" width="262.944" x="505.9449" y="808.1172"/><text fill="#000000" font-family="sans-serif" font-size="12" lengthAdjust="spacing" textLength="242.944" x="515.9449" y="829.2559">&#54665;&#46041; &#48320;&#54868; &#44048;&#51648; &#8594; &#50640;&#45320;&#51648; 10&#51216; + &#8220;&#50575;&#54840;~&#8221; &#48152;&#51025;</text><polygon fill="#F1F1F1" points="565.9398,690.7461,708.8939,690.7461,720.8939,702.7461,708.8939,714.7461,565.9398,714.7461,553.9398,702.7461,565.9398,690.7461" style="stroke:#181818;stroke-width:0.5;"/><text fill="#000000" font-family="sans-serif" font-size="11" lengthAdjust="spacing" textLength="10.1199" x="641.4169" y="724.9565">&#50696;</text><text fill="#000000" font-family="sans-serif" font-size="11" lengthAdjust="spacing" textLength="142.9541" x="565.9398" y="706.5542">&#50505;&#51020; &#49345;&#53468; &#51648;&#49549; &gt;= &#49444;&#51221; &#49884;&#44036;?</text><polygon fill="#F1F1F1" points="637.4169,866.4883,649.4169,878.4883,637.4169,890.4883,625.4169,878.4883,637.4169,866.4883" style="stroke:#181818;stroke-width:0.5;"/><rect fill="#F1F1F1" height="33.9688" rx="12.5" ry="12.5" style="stroke:#181818;stroke-width:0.5;" width="290.5244" x="792.8889" y="739.1484"/><text fill="#000000" font-family="sans-serif" font-size="12" lengthAdjust="spacing" textLength="270.5244" x="802.8889" y="760.2871">&#8220;&#50640;&#44592;&#51032; &#49884;&#47141;&#51060; &#45208;&#48736;&#51648;&#44256; &#51080;&#50612;&#50836;!&#8221; &#50508;&#47548; (&#47784;&#48148;&#51068;/&#50892;&#52824;)</text><rect fill="#F1F1F1" height="33.9688" rx="12.5" ry="12.5" style="stroke:#181818;stroke-width:0.5;" width="262.944" x="806.679" y="808.1172"/><text fill="#000000" font-family="sans-serif" font-size="12" lengthAdjust="spacing" textLength="242.944" x="816.679" y="829.2559">&#54665;&#46041; &#48320;&#54868; &#44048;&#51648; &#8594; &#50640;&#45320;&#51648; 10&#51216; + &#8220;&#50575;&#54840;~&#8221; &#48152;&#51025;</text><polygon fill="#F1F1F1" points="859.8657,690.7461,1016.4363,690.7461,1028.4363,702.7461,1016.4363,714.7461,859.8657,714.7461,847.8657,702.7461,859.8657,690.7461" style="stroke:#181818;stroke-width:0.5;"/><text fill="#000000" font-family="sans-serif" font-size="11" lengthAdjust="spacing" textLength="10.1199" x="942.151" y="724.9565">&#50696;</text><text fill="#000000" font-family="sans-serif" font-size="11" lengthAdjust="spacing" textLength="156.5706" x="859.8657" y="706.5542">&#54256; &#49324;&#50857; &#49345;&#53468; &#51648;&#49549; &gt;= &#49444;&#51221; &#49884;&#44036;?</text><polygon fill="#F1F1F1" points="938.151,866.4883,950.151,878.4883,938.151,890.4883,926.151,878.4883,938.151,866.4883" style="stroke:#181818;stroke-width:0.5;"/><rect fill="#555555" height="6" rx="2.5" ry="2.5" style="stroke:#555555;stroke-width:1;" width="1098.4132" x="11" y="910.4883"/><rect fill="#F1F1F1" height="33.9688" rx="12.5" ry="12.5" style="stroke:#181818;stroke-width:0.5;" width="119.764" x="510.3246" y="984.8906"/><text fill="#000000" font-family="sans-serif" font-size="12" lengthAdjust="spacing" textLength="99.764" x="520.3246" y="1006.0293">&#44208;&#49328; &#53440;&#51076; &#50508;&#47548; &#51204;&#49569;</text><rect fill="#F1F1F1" height="33.9688" rx="12.5" ry="12.5" style="stroke:#181818;stroke-width:0.5;" width="145.6587" x="497.3773" y="1038.8594"/><text fill="#000000" font-family="sans-serif" font-size="12" lengthAdjust="spacing" textLength="125.6587" x="507.3773" y="1059.998">&#45936;&#51060;&#53552; &#51312;&#54924; &#48143; &#51216;&#49688; &#44228;&#49328;</text><polygon fill="#F1F1F1" points="395.2062,1092.8281,456.1052,1092.8281,468.1052,1104.8281,456.1052,1116.8281,395.2062,1116.8281,383.2062,1104.8281,395.2062,1092.8281" style="stroke:#181818;stroke-width:0.5;"/><text fill="#000000" font-family="sans-serif" font-size="11" lengthAdjust="spacing" textLength="60.899" x="395.2062" y="1108.6362">&#51216;&#49688; &lt; 80%</text><rect fill="#F1F1F1" height="33.9688" rx="12.5" ry="12.5" style="stroke:#181818;stroke-width:0.5;" width="107.629" x="371.8412" y="1136.8281"/><text fill="#000000" font-family="sans-serif" font-size="12" lengthAdjust="spacing" textLength="87.629" x="381.8412" y="1157.9668">Basic Eggi &#49373;&#49457;</text><polygon fill="#F1F1F1" points="530.8526,1092.8281,598.7501,1092.8281,610.7501,1104.8281,598.7501,1116.8281,530.8526,1116.8281,518.8526,1104.8281,530.8526,1092.8281" style="stroke:#181818;stroke-width:0.5;"/><text fill="#000000" font-family="sans-serif" font-size="11" lengthAdjust="spacing" textLength="67.8976" x="530.8526" y="1108.6362">&#51216;&#49688; &lt; 100%</text><rect fill="#F1F1F1" height="33.9688" rx="12.5" ry="12.5" style="stroke:#181818;stroke-width:0.5;" width="130.6622" x="499.4702" y="1136.8281"/><text fill="#000000" font-family="sans-serif" font-size="12" lengthAdjust="spacing" textLength="110.6622" x="509.4702" y="1157.9668">Standard Eggi &#49373;&#49457;</text><rect fill="#F1F1F1" height="33.9688" rx="12.5" ry="12.5" style="stroke:#181818;stroke-width:0.5;" width="118.4395" x="650.1324" y="1139.8281"/><text fill="#000000" font-family="sans-serif" font-size="12" lengthAdjust="spacing" textLength="98.4395" x="660.1324" y="1160.9668">Golden Eggi &#49373;&#49457;</text><rect fill="#F1F1F1" height="33.9688" rx="12.5" ry="12.5" style="stroke:#181818;stroke-width:0.5;" width="108.9797" x="515.7167" y="1213.7969"/><text fill="#000000" font-family="sans-serif" font-size="12" lengthAdjust="spacing" textLength="88.9797" x="525.7167" y="1234.9355">&#45804;&#47141;&#50640; Eggi &#44592;&#47197;</text><rect fill="#F1F1F1" height="33.9688" rx="12.5" ry="12.5" style="stroke:#181818;stroke-width:0.5;" width="71.7892" x="534.312" y="1267.7656"/><text fill="#000000" font-family="sans-serif" font-size="12" lengthAdjust="spacing" textLength="51.7892" x="544.312" y="1288.9043">&#55152; &#50508; &#51648;&#44553;</text><polygon fill="#F1F1F1" points="510.5978,936.4883,629.8154,936.4883,641.8154,948.4883,629.8154,960.4883,510.5978,960.4883,498.5978,948.4883,510.5978,936.4883" style="stroke:#181818;stroke-width:0.5;"/><text fill="#000000" font-family="sans-serif" font-size="11" lengthAdjust="spacing" textLength="10.1199" x="574.2066" y="970.6987">&#50696;</text><text fill="#000000" font-family="sans-serif" font-size="11" lengthAdjust="spacing" textLength="119.2177" x="510.5978" y="952.2964">&#54788;&#51116; &#49884;&#44033; == &#52712;&#52840; &#49884;&#44036;?</text><polygon fill="#F1F1F1" points="570.2066,1321.7344,582.2066,1333.7344,570.2066,1345.7344,558.2066,1333.7344,570.2066,1321.7344" style="stroke:#181818;stroke-width:0.5;"/><rect fill="#F1F1F1" height="33.9688" rx="12.5" ry="12.5" style="stroke:#181818;stroke-width:0.5;" width="141.8442" x="499.2845" y="1414.1367"/><text fill="#000000" font-family="sans-serif" font-size="12" lengthAdjust="spacing" textLength="121.8442" x="509.2845" y="1435.2754">&#55152; &#50508; &#55124;&#46308;&#47548; &#50528;&#45768;&#47700;&#51060;&#49496;</text><rect fill="#F1F1F1" height="33.9688" rx="12.5" ry="12.5" style="stroke:#181818;stroke-width:0.5;" width="92.884" x="523.7646" y="1512.1055"/><text fill="#000000" font-family="sans-serif" font-size="12" lengthAdjust="spacing" textLength="72.884" x="533.7646" y="1533.2441">&#53552;&#52824; &#8594; &#55124;&#46308;&#44592;</text><polygon fill="#F1F1F1" points="570.2066,1468.1055,582.2066,1480.1055,570.2066,1492.1055,558.2066,1480.1055,570.2066,1468.1055" style="stroke:#181818;stroke-width:0.5;"/><polygon fill="#F1F1F1" points="536.6142,1583.5742,603.799,1583.5742,615.799,1595.5742,603.799,1607.5742,536.6142,1607.5742,524.6142,1595.5742,536.6142,1583.5742" style="stroke:#181818;stroke-width:0.5;"/><text fill="#000000" font-family="sans-serif" font-size="11" lengthAdjust="spacing" textLength="67.1848" x="536.6142" y="1599.3823">&#53552;&#52824; &#54943;&#49688; &lt; 3</text><rect fill="#F1F1F1" height="33.9688" rx="12.5" ry="12.5" style="stroke:#181818;stroke-width:0.5;" width="258.7146" x="440.8493" y="1627.5742"/><text fill="#000000" font-family="sans-serif" font-size="12" lengthAdjust="spacing" textLength="238.7146" x="450.8493" y="1648.7129">&#55152; &#50508; &#54028;&#49552; &#8594; &#50640;&#44592; &#46321;&#51109; &#50528;&#45768;&#47700;&#51060;&#49496; + &#8220;&#50504;&#45397;~&#8221;</text><rect fill="#F1F1F1" height="33.9688" rx="12.5" ry="12.5" style="stroke:#181818;stroke-width:0.5;" width="182.5934" x="478.9099" y="1681.543"/><text fill="#000000" font-family="sans-serif" font-size="12" lengthAdjust="spacing" textLength="162.5934" x="488.9099" y="1702.6816">&#49688;&#47732; &#49345;&#53468; &#44592;&#48152; &#52488;&#44592; &#50640;&#45320;&#51648; &#44208;&#51221;</text><polygon fill="#F1F1F1" points="543.551,1365.7344,596.8622,1365.7344,608.8622,1377.7344,596.8622,1389.7344,543.551,1389.7344,531.551,1377.7344,543.551,1365.7344" style="stroke:#181818;stroke-width:0.5;"/><text fill="#000000" font-family="sans-serif" font-size="11" lengthAdjust="spacing" textLength="10.1199" x="574.2066" y="1399.9448">&#50696;</text><text fill="#000000" font-family="sans-serif" font-size="11" lengthAdjust="spacing" textLength="53.3112" x="543.551" y="1381.5425">&#55152; &#50508; &#53552;&#52824;?</text><polygon fill="#F1F1F1" points="570.2066,1735.5117,582.2066,1747.5117,570.2066,1759.5117,558.2066,1747.5117,570.2066,1735.5117" style="stroke:#181818;stroke-width:0.5;"/><rect fill="#F1F1F1" height="33.9688" rx="12.5" ry="12.5" style="stroke:#181818;stroke-width:0.5;" width="250.1013" x="445.156" y="1871.9141"/><text fill="#000000" font-family="sans-serif" font-size="12" lengthAdjust="spacing" textLength="230.1013" x="455.156" y="1893.0527">&#52880;&#47533;&#53552; &#53552;&#52824; &#8594; &#48152;&#51025; &#50528;&#45768;&#47700;&#51060;&#49496; + &#50640;&#45320;&#51648; +5</text><polygon fill="#F1F1F1" points="570.2066,1827.9141,582.2066,1839.9141,570.2066,1851.9141,558.2066,1839.9141,570.2066,1827.9141" style="stroke:#181818;stroke-width:0.5;"/><polygon fill="#F1F1F1" points="536.6142,1943.3828,603.799,1943.3828,615.799,1955.3828,603.799,1967.3828,536.6142,1967.3828,524.6142,1955.3828,536.6142,1943.3828" style="stroke:#181818;stroke-width:0.5;"/><text fill="#000000" font-family="sans-serif" font-size="11" lengthAdjust="spacing" textLength="67.1848" x="536.6142" y="1959.1909">&#53552;&#52824; &#54943;&#49688; &lt; 6</text><rect fill="#F1F1F1" height="33.9688" rx="12.5" ry="12.5" style="stroke:#181818;stroke-width:0.5;" width="86.6496" x="526.8818" y="1987.3828"/><text fill="#000000" font-family="sans-serif" font-size="12" lengthAdjust="spacing" textLength="66.6496" x="536.8818" y="2008.5215">&#53224;&#45796;&#50868; 1&#49884;&#44036;</text><polygon fill="#F1F1F1" points="540.2393,1779.5117,600.1739,1779.5117,612.1739,1791.5117,600.1739,1803.5117,540.2393,1803.5117,528.2393,1791.5117,540.2393,1779.5117" style="stroke:#181818;stroke-width:0.5;"/><text fill="#000000" font-family="sans-serif" font-size="11" lengthAdjust="spacing" textLength="10.1199" x="574.2066" y="1813.7222">&#50696;</text><text fill="#000000" font-family="sans-serif" font-size="11" lengthAdjust="spacing" textLength="59.9346" x="540.2393" y="1795.3198">&#52880;&#47533;&#53552; &#53552;&#52824;?</text><polygon fill="#F1F1F1" points="570.2066,2041.3516,582.2066,2053.3516,570.2066,2065.3516,558.2066,2053.3516,570.2066,2041.3516" style="stroke:#181818;stroke-width:0.5;"/><rect fill="#F1F1F1" height="33.9688" rx="12.5" ry="12.5" style="stroke:#181818;stroke-width:0.5;" width="121.0462" x="509.6835" y="2133.7539"/><text fill="#000000" font-family="sans-serif" font-size="12" lengthAdjust="spacing" textLength="101.0462" x="519.6835" y="2154.8926">&#50640;&#44592; &#52972;&#47113;&#49496; UI &#54364;&#49884;</text><rect fill="#F1F1F1" height="33.9688" rx="12.5" ry="12.5" style="stroke:#181818;stroke-width:0.5;" width="269.6405" x="435.3863" y="2236.125"/><text fill="#000000" font-family="sans-serif" font-size="12" lengthAdjust="spacing" textLength="249.6405" x="445.3863" y="2257.2637">&#49345;&#49464; &#51221;&#48372; &#54364;&#49884; (&#51060;&#47492;&#183;&#54925;&#46301; &#54943;&#49688;&#183;&#52572;&#52488; &#54925;&#46301;&#51068;&#183;&#49444;&#47749;)</text><polygon fill="#F1F1F1" points="545.2993,2187.7227,595.1139,2187.7227,607.1139,2199.7227,595.1139,2211.7227,545.2993,2211.7227,533.2993,2199.7227,545.2993,2187.7227" style="stroke:#181818;stroke-width:0.5;"/><text fill="#000000" font-family="sans-serif" font-size="11" lengthAdjust="spacing" textLength="10.1199" x="574.2066" y="2221.9331">&#50696;</text><text fill="#000000" font-family="sans-serif" font-size="11" lengthAdjust="spacing" textLength="49.8146" x="545.2993" y="2203.5308">&#50640;&#44592; &#53364;&#47533;?</text><polygon fill="#F1F1F1" points="570.2066,2290.0938,582.2066,2302.0938,570.2066,2314.0938,558.2066,2302.0938,570.2066,2290.0938" style="stroke:#181818;stroke-width:0.5;"/><polygon fill="#F1F1F1" points="510.1462,2085.3516,630.267,2085.3516,642.267,2097.3516,630.267,2109.3516,510.1462,2109.3516,498.1462,2097.3516,510.1462,2085.3516" style="stroke:#181818;stroke-width:0.5;"/><text fill="#000000" font-family="sans-serif" font-size="11" lengthAdjust="spacing" textLength="10.1199" x="574.2066" y="2119.562">&#50696;</text><text fill="#000000" font-family="sans-serif" font-size="11" lengthAdjust="spacing" textLength="120.1208" x="510.1462" y="2101.1597">&#49324;&#50857;&#51088; &#8594; &#52972;&#47113;&#49496; &#53485; &#50676;&#44592;?</text><polygon fill="#F1F1F1" points="570.2066,2334.0938,582.2066,2346.0938,570.2066,2358.0938,558.2066,2346.0938,570.2066,2334.0938" style="stroke:#181818;stroke-width:0.5;"/><rect fill="#F1F1F1" height="33.9688" rx="12.5" ry="12.5" style="stroke:#181818;stroke-width:0.5;" width="130.8041" x="504.8045" y="2426.4961"/><text fill="#000000" font-family="sans-serif" font-size="12" lengthAdjust="spacing" textLength="110.8041" x="514.8045" y="2447.6348">&#50724;&#45720;&#51032; &#54876;&#46041; &#50836;&#50557; &#54364;&#49884;</text><polygon fill="#F1F1F1" points="498.278,2378.0938,642.1352,2378.0938,654.1352,2390.0938,642.1352,2402.0938,498.278,2402.0938,486.278,2390.0938,498.278,2378.0938" style="stroke:#181818;stroke-width:0.5;"/><text fill="#000000" font-family="sans-serif" font-size="11" lengthAdjust="spacing" textLength="10.1199" x="574.2066" y="2412.3042">&#50696;</text><text fill="#000000" font-family="sans-serif" font-size="11" lengthAdjust="spacing" textLength="143.8572" x="498.278" y="2393.9019">&#49324;&#50857;&#51088; &#8594; &#50724;&#45720; &#54876;&#46041; &#54788;&#54889; &#48372;&#44592;?</text><polygon fill="#F1F1F1" points="570.2066,2480.4648,582.2066,2492.4648,570.2066,2504.4648,558.2066,2492.4648,570.2066,2480.4648" style="stroke:#181818;stroke-width:0.5;"/><ellipse cx="570.2066" cy="2535.4648" fill="none" rx="11" ry="11" style="stroke:#222222;stroke-width:1;"/><ellipse cx="570.2066" cy="2535.4648" fill="#222222" rx="6" ry="6" style="stroke:#222222;stroke-width:1;"/><line style="stroke:#181818;stroke-width:1;" x1="570.2066" x2="570.2066" y1="67.2969" y2="87.2969"/><polygon fill="#181818" points="566.2066,77.2969,570.2066,87.2969,574.2066,77.2969,570.2066,81.2969" style="stroke:#181818;stroke-width:1;"/><line style="stroke:#181818;stroke-width:1;" x1="570.2066" x2="570.2066" y1="121.2656" y2="141.2656"/><polygon fill="#181818" points="566.2066,131.2656,570.2066,141.2656,574.2066,131.2656,570.2066,135.2656" style="stroke:#181818;stroke-width:1;"/><line style="stroke:#181818;stroke-width:1;" x1="570.2066" x2="570.2066" y1="175.2344" y2="195.2344"/><polygon fill="#181818" points="566.2066,185.2344,570.2066,195.2344,574.2066,185.2344,570.2066,189.2344" style="stroke:#181818;stroke-width:1;"/><line style="stroke:#181818;stroke-width:1;" x1="570.2066" x2="570.2066" y1="331.5742" y2="366.5742"/><polygon fill="#181818" points="566.2066,356.5742,570.2066,366.5742,574.2066,356.5742,570.2066,360.5742" style="stroke:#181818;stroke-width:1;"/><line style="stroke:#181818;stroke-width:1;" x1="570.2066" x2="570.2066" y1="273.2031" y2="297.6055"/><polygon fill="#181818" points="566.2066,287.6055,570.2066,297.6055,574.2066,287.6055,570.2066,291.6055" style="stroke:#181818;stroke-width:1;"/><line style="stroke:#181818;stroke-width:1;" x1="612.1739" x2="666.2118" y1="261.2031" y2="261.2031"/><polygon fill="#181818" points="662.2118,339.0742,666.2118,349.0742,670.2118,339.0742,666.2118,343.0742" style="stroke:#181818;stroke-width:1;"/><line style="stroke:#181818;stroke-width:1;" x1="666.2118" x2="666.2118" y1="261.2031" y2="432.543"/><line style="stroke:#181818;stroke-width:1;" x1="666.2118" x2="582.2066" y1="432.543" y2="432.543"/><polygon fill="#181818" points="592.2066,428.543,582.2066,432.543,592.2066,436.543,588.2066,432.543" style="stroke:#181818;stroke-width:1;"/><line style="stroke:#181818;stroke-width:1;" x1="570.2066" x2="570.2066" y1="400.543" y2="420.543"/><polygon fill="#181818" points="566.2066,410.543,570.2066,420.543,574.2066,410.543,570.2066,414.543" style="stroke:#181818;stroke-width:1;"/><line style="stroke:#181818;stroke-width:1;" x1="570.2066" x2="570.2066" y1="229.2031" y2="249.2031"/><polygon fill="#181818" points="566.2066,239.2031,570.2066,249.2031,574.2066,239.2031,570.2066,243.2031" style="stroke:#181818;stroke-width:1;"/><line style="stroke:#181818;stroke-width:1;" x1="570.2066" x2="570.2066" y1="444.543" y2="464.543"/><polygon fill="#181818" points="566.2066,454.543,570.2066,464.543,574.2066,454.543,570.2066,458.543" style="stroke:#181818;stroke-width:1;"/><line style="stroke:#181818;stroke-width:1;" x1="570.2066" x2="570.2066" y1="578.7773" y2="598.7773"/><polygon fill="#181818" points="566.2066,588.7773,570.2066,598.7773,574.2066,588.7773,570.2066,592.7773" style="stroke:#181818;stroke-width:1;"/><line style="stroke:#181818;stroke-width:1;" x1="570.2066" x2="570.2066" y1="498.5117" y2="544.8086"/><polygon fill="#181818" points="566.2066,534.8086,570.2066,544.8086,574.2066,534.8086,570.2066,538.8086" style="stroke:#181818;stroke-width:1;"/><line style="stroke:#181818;stroke-width:1;" x1="90.0004" x2="90.0004" y1="749.2305" y2="773.6328"/><polygon fill="#181818" points="86.0004,763.6328,90.0004,773.6328,94.0004,763.6328,90.0004,767.6328" style="stroke:#181818;stroke-width:1;"/><line style="stroke:#181818;stroke-width:1;" x1="157.0009" x2="169.0009" y1="737.2305" y2="737.2305"/><polygon fill="#181818" points="165.0009,780.6172,169.0009,790.6172,173.0009,780.6172,169.0009,784.6172" style="stroke:#181818;stroke-width:1;"/><line style="stroke:#181818;stroke-width:1;" x1="169.0009" x2="169.0009" y1="737.2305" y2="844.0039"/><line style="stroke:#181818;stroke-width:1;" x1="169.0009" x2="102.0004" y1="844.0039" y2="844.0039"/><polygon fill="#181818" points="112.0004,840.0039,102.0004,844.0039,112.0004,848.0039,108.0004,844.0039" style="stroke:#181818;stroke-width:1;"/><line style="stroke:#181818;stroke-width:1;" x1="90.0004" x2="90.0004" y1="807.6016" y2="832.0039"/><polygon fill="#181818" points="86.0004,822.0039,90.0004,832.0039,94.0004,822.0039,90.0004,826.0039" style="stroke:#181818;stroke-width:1;"/><line style="stroke:#181818;stroke-width:1;" x1="314.4729" x2="314.4729" y1="773.1172" y2="808.1172"/><polygon fill="#181818" points="310.4729,798.1172,314.4729,808.1172,318.4729,798.1172,314.4729,802.1172" style="stroke:#181818;stroke-width:1;"/><line style="stroke:#181818;stroke-width:1;" x1="314.4729" x2="314.4729" y1="714.7461" y2="739.1484"/><polygon fill="#181818" points="310.4729,729.1484,314.4729,739.1484,318.4729,729.1484,314.4729,733.1484" style="stroke:#181818;stroke-width:1;"/><line style="stroke:#181818;stroke-width:1;" x1="397.9499" x2="455.9449" y1="702.7461" y2="702.7461"/><polygon fill="#181818" points="451.9449,780.6172,455.9449,790.6172,459.9449,780.6172,455.9449,784.6172" style="stroke:#181818;stroke-width:1;"/><line style="stroke:#181818;stroke-width:1;" x1="455.9449" x2="455.9449" y1="702.7461" y2="878.4883"/><line style="stroke:#181818;stroke-width:1;" x1="455.9449" x2="326.4729" y1="878.4883" y2="878.4883"/><polygon fill="#181818" points="336.4729,874.4883,326.4729,878.4883,336.4729,882.4883,332.4729,878.4883" style="stroke:#181818;stroke-width:1;"/><line style="stroke:#181818;stroke-width:1;" x1="314.4729" x2="314.4729" y1="842.0859" y2="866.4883"/><polygon fill="#181818" points="310.4729,856.4883,314.4729,866.4883,318.4729,856.4883,314.4729,860.4883" style="stroke:#181818;stroke-width:1;"/><line style="stroke:#181818;stroke-width:1;" x1="637.4169" x2="637.4169" y1="773.1172" y2="808.1172"/><polygon fill="#181818" points="633.4169,798.1172,637.4169,808.1172,641.4169,798.1172,637.4169,802.1172" style="stroke:#181818;stroke-width:1;"/><line style="stroke:#181818;stroke-width:1;" x1="637.4169" x2="637.4169" y1="714.7461" y2="739.1484"/><polygon fill="#181818" points="633.4169,729.1484,637.4169,739.1484,641.4169,729.1484,637.4169,733.1484" style="stroke:#181818;stroke-width:1;"/><line style="stroke:#181818;stroke-width:1;" x1="720.8939" x2="778.8889" y1="702.7461" y2="702.7461"/><polygon fill="#181818" points="774.8889,780.6172,778.8889,790.6172,782.8889,780.6172,778.8889,784.6172" style="stroke:#181818;stroke-width:1;"/><line style="stroke:#181818;stroke-width:1;" x1="778.8889" x2="778.8889" y1="702.7461" y2="878.4883"/><line style="stroke:#181818;stroke-width:1;" x1="778.8889" x2="649.4169" y1="878.4883" y2="878.4883"/><polygon fill="#181818" points="659.4169,874.4883,649.4169,878.4883,659.4169,882.4883,655.4169,878.4883" style="stroke:#181818;stroke-width:1;"/><line style="stroke:#181818;stroke-width:1;" x1="637.4169" x2="637.4169" y1="842.0859" y2="866.4883"/><polygon fill="#181818" points="633.4169,856.4883,637.4169,866.4883,641.4169,856.4883,637.4169,860.4883" style="stroke:#181818;stroke-width:1;"/><line style="stroke:#181818;stroke-width:1;" x1="938.151" x2="938.151" y1="773.1172" y2="808.1172"/><polygon fill="#181818" points="934.151,798.1172,938.151,808.1172,942.151,798.1172,938.151,802.1172" style="stroke:#181818;stroke-width:1;"/><line style="stroke:#181818;stroke-width:1;" x1="938.151" x2="938.151" y1="714.7461" y2="739.1484"/><polygon fill="#181818" points="934.151,729.1484,938.151,739.1484,942.151,729.1484,938.151,733.1484" style="stroke:#181818;stroke-width:1;"/><line style="stroke:#181818;stroke-width:1;" x1="1028.4363" x2="1093.4132" y1="702.7461" y2="702.7461"/><polygon fill="#181818" points="1089.4132,780.6172,1093.4132,790.6172,1097.4132,780.6172,1093.4132,784.6172" style="stroke:#181818;stroke-width:1;"/><line style="stroke:#181818;stroke-width:1;" x1="1093.4132" x2="1093.4132" y1="702.7461" y2="878.4883"/><line style="stroke:#181818;stroke-width:1;" x1="1093.4132" x2="950.151" y1="878.4883" y2="878.4883"/><polygon fill="#181818" points="960.151,874.4883,950.151,878.4883,960.151,882.4883,956.151,878.4883" style="stroke:#181818;stroke-width:1;"/><line style="stroke:#181818;stroke-width:1;" x1="938.151" x2="938.151" y1="842.0859" y2="866.4883"/><polygon fill="#181818" points="934.151,856.4883,938.151,866.4883,942.151,856.4883,938.151,860.4883" style="stroke:#181818;stroke-width:1;"/><line style="stroke:#181818;stroke-width:1;" x1="90.0004" x2="90.0004" y1="670.7461" y2="725.2305"/><polygon fill="#181818" points="86.0004,715.2305,90.0004,725.2305,94.0004,715.2305,90.0004,719.2305" style="stroke:#181818;stroke-width:1;"/><line style="stroke:#181818;stroke-width:1;" x1="314.4729" x2="314.4729" y1="670.7461" y2="690.7461"/><polygon fill="#181818" points="310.4729,680.7461,314.4729,690.7461,318.4729,680.7461,314.4729,684.7461" style="stroke:#181818;stroke-width:1;"/><line style="stroke:#181818;stroke-width:1;" x1="637.4169" x2="637.4169" y1="670.7461" y2="690.7461"/><polygon fill="#181818" points="633.4169,680.7461,637.4169,690.7461,641.4169,680.7461,637.4169,684.7461" style="stroke:#181818;stroke-width:1;"/><line style="stroke:#181818;stroke-width:1;" x1="938.151" x2="938.151" y1="670.7461" y2="690.7461"/><polygon fill="#181818" points="934.151,680.7461,938.151,690.7461,942.151,680.7461,938.151,684.7461" style="stroke:#181818;stroke-width:1;"/><line style="stroke:#181818;stroke-width:1;" x1="90.0004" x2="90.0004" y1="856.0039" y2="910.4883"/><polygon fill="#181818" points="86.0004,900.4883,90.0004,910.4883,94.0004,900.4883,90.0004,904.4883" style="stroke:#181818;stroke-width:1;"/><line style="stroke:#181818;stroke-width:1;" x1="314.4729" x2="314.4729" y1="890.4883" y2="910.4883"/><polygon fill="#181818" points="310.4729,900.4883,314.4729,910.4883,318.4729,900.4883,314.4729,904.4883" style="stroke:#181818;stroke-width:1;"/><line style="stroke:#181818;stroke-width:1;" x1="637.4169" x2="637.4169" y1="890.4883" y2="910.4883"/><polygon fill="#181818" points="633.4169,900.4883,637.4169,910.4883,641.4169,900.4883,637.4169,904.4883" style="stroke:#181818;stroke-width:1;"/><line style="stroke:#181818;stroke-width:1;" x1="938.151" x2="938.151" y1="890.4883" y2="910.4883"/><polygon fill="#181818" points="934.151,900.4883,938.151,910.4883,942.151,900.4883,938.151,904.4883" style="stroke:#181818;stroke-width:1;"/><line style="stroke:#181818;stroke-width:1;" x1="570.2066" x2="570.2066" y1="632.7461" y2="664.7461"/><polygon fill="#181818" points="566.2066,654.7461,570.2066,664.7461,574.2066,654.7461,570.2066,658.7461" style="stroke:#181818;stroke-width:1;"/><line style="stroke:#181818;stroke-width:1;" x1="570.2066" x2="570.2066" y1="1018.8594" y2="1038.8594"/><polygon fill="#181818" points="566.2066,1028.8594,570.2066,1038.8594,574.2066,1028.8594,570.2066,1032.8594" style="stroke:#181818;stroke-width:1;"/><line style="stroke:#181818;stroke-width:1;" x1="425.6557" x2="425.6557" y1="1116.8281" y2="1136.8281"/><polygon fill="#181818" points="421.6557,1126.8281,425.6557,1136.8281,429.6557,1126.8281,425.6557,1130.8281" style="stroke:#181818;stroke-width:1;"/><line style="stroke:#181818;stroke-width:1;" x1="425.6557" x2="425.6557" y1="1170.7969" y2="1193.7969"/><polygon fill="#181818" points="421.6557,1183.7969,425.6557,1193.7969,429.6557,1183.7969,425.6557,1187.7969" style="stroke:#181818;stroke-width:1;"/><line style="stroke:#181818;stroke-width:1;" x1="564.8013" x2="564.8013" y1="1116.8281" y2="1136.8281"/><polygon fill="#181818" points="560.8013,1126.8281,564.8013,1136.8281,568.8013,1126.8281,564.8013,1130.8281" style="stroke:#181818;stroke-width:1;"/><line style="stroke:#181818;stroke-width:1;" x1="564.8013" x2="564.8013" y1="1170.7969" y2="1193.7969"/><polygon fill="#181818" points="560.8013,1183.7969,564.8013,1193.7969,568.8013,1183.7969,564.8013,1187.7969" style="stroke:#181818;stroke-width:1;"/><line style="stroke:#181818;stroke-width:1;" x1="468.1052" x2="518.8526" y1="1104.8281" y2="1104.8281"/><polygon fill="#181818" points="508.8526,1100.8281,518.8526,1104.8281,508.8526,1108.8281,512.8526,1104.8281" style="stroke:#181818;stroke-width:1;"/><line style="stroke:#181818;stroke-width:1;" x1="570.2066" x2="570.2066" y1="1072.8281" y2="1077.8281"/><line style="stroke:#181818;stroke-width:1;" x1="570.2066" x2="425.6557" y1="1077.8281" y2="1077.8281"/><line style="stroke:#181818;stroke-width:1;" x1="425.6557" x2="425.6557" y1="1077.8281" y2="1092.8281"/><polygon fill="#181818" points="421.6557,1082.8281,425.6557,1092.8281,429.6557,1082.8281,425.6557,1086.8281" style="stroke:#181818;stroke-width:1;"/><line style="stroke:#181818;stroke-width:1;" x1="610.7501" x2="709.3522" y1="1104.8281" y2="1104.8281"/><line style="stroke:#181818;stroke-width:1;" x1="709.3522" x2="709.3522" y1="1104.8281" y2="1139.8281"/><polygon fill="#181818" points="705.3522,1129.8281,709.3522,1139.8281,713.3522,1129.8281,709.3522,1133.8281" style="stroke:#181818;stroke-width:1;"/><line style="stroke:#181818;stroke-width:1;" x1="709.3522" x2="709.3522" y1="1173.7969" y2="1193.7969"/><polygon fill="#181818" points="705.3522,1183.7969,709.3522,1193.7969,713.3522,1183.7969,709.3522,1187.7969" style="stroke:#181818;stroke-width:1;"/><line style="stroke:#181818;stroke-width:1;" x1="425.6557" x2="709.3522" y1="1193.7969" y2="1193.7969"/><line style="stroke:#181818;stroke-width:1;" x1="570.2066" x2="570.2066" y1="1193.7969" y2="1213.7969"/><polygon fill="#181818" points="566.2066,1203.7969,570.2066,1213.7969,574.2066,1203.7969,570.2066,1207.7969" style="stroke:#181818;stroke-width:1;"/><line style="stroke:#181818;stroke-width:1;" x1="570.2066" x2="570.2066" y1="1247.7656" y2="1267.7656"/><polygon fill="#181818" points="566.2066,1257.7656,570.2066,1267.7656,574.2066,1257.7656,570.2066,1261.7656" style="stroke:#181818;stroke-width:1;"/><line style="stroke:#181818;stroke-width:1;" x1="570.2066" x2="570.2066" y1="960.4883" y2="984.8906"/><polygon fill="#181818" points="566.2066,974.8906,570.2066,984.8906,574.2066,974.8906,570.2066,978.8906" style="stroke:#181818;stroke-width:1;"/><line style="stroke:#181818;stroke-width:1;" x1="641.8154" x2="778.572" y1="948.4883" y2="948.4883"/><polygon fill="#181818" points="774.572,1146.8125,778.572,1156.8125,782.572,1146.8125,778.572,1150.8125" style="stroke:#181818;stroke-width:1;"/><line style="stroke:#181818;stroke-width:1;" x1="778.572" x2="778.572" y1="948.4883" y2="1333.7344"/><line style="stroke:#181818;stroke-width:1;" x1="778.572" x2="582.2066" y1="1333.7344" y2="1333.7344"/><polygon fill="#181818" points="592.2066,1329.7344,582.2066,1333.7344,592.2066,1337.7344,588.2066,1333.7344" style="stroke:#181818;stroke-width:1;"/><line style="stroke:#181818;stroke-width:1;" x1="570.2066" x2="570.2066" y1="1301.7344" y2="1321.7344"/><polygon fill="#181818" points="566.2066,1311.7344,570.2066,1321.7344,574.2066,1311.7344,570.2066,1315.7344" style="stroke:#181818;stroke-width:1;"/><line style="stroke:#181818;stroke-width:1;" x1="570.2066" x2="570.2066" y1="916.4883" y2="936.4883"/><polygon fill="#181818" points="566.2066,926.4883,570.2066,936.4883,574.2066,926.4883,570.2066,930.4883" style="stroke:#181818;stroke-width:1;"/><line style="stroke:#181818;stroke-width:1;" x1="570.2066" x2="570.2066" y1="1492.1055" y2="1512.1055"/><polygon fill="#181818" points="566.2066,1502.1055,570.2066,1512.1055,574.2066,1502.1055,570.2066,1506.1055" style="stroke:#181818;stroke-width:1;"/><line style="stroke:#181818;stroke-width:1;" x1="615.799" x2="628.6486" y1="1595.5742" y2="1595.5742"/><polygon fill="#181818" points="624.6486,1539.0898,628.6486,1529.0898,632.6486,1539.0898,628.6486,1535.0898" style="stroke:#181818;stroke-width:1;"/><line style="stroke:#181818;stroke-width:1;" x1="628.6486" x2="628.6486" y1="1480.1055" y2="1595.5742"/><line style="stroke:#181818;stroke-width:1;" x1="628.6486" x2="582.2066" y1="1480.1055" y2="1480.1055"/><polygon fill="#181818" points="592.2066,1476.1055,582.2066,1480.1055,592.2066,1484.1055,588.2066,1480.1055" style="stroke:#181818;stroke-width:1;"/><line style="stroke:#181818;stroke-width:1;" x1="570.2066" x2="570.2066" y1="1546.0742" y2="1583.5742"/><polygon fill="#181818" points="566.2066,1573.5742,570.2066,1583.5742,574.2066,1573.5742,570.2066,1577.5742" style="stroke:#181818;stroke-width:1;"/><line style="stroke:#181818;stroke-width:1;" x1="570.2066" x2="570.2066" y1="1448.1055" y2="1468.1055"/><polygon fill="#181818" points="566.2066,1458.1055,570.2066,1468.1055,574.2066,1458.1055,570.2066,1462.1055" style="stroke:#181818;stroke-width:1;"/><line style="stroke:#181818;stroke-width:1;" x1="570.2066" x2="570.2066" y1="1607.5742" y2="1627.5742"/><polygon fill="#181818" points="566.2066,1617.5742,570.2066,1627.5742,574.2066,1617.5742,570.2066,1621.5742" style="stroke:#181818;stroke-width:1;"/><line style="stroke:#181818;stroke-width:1;" x1="570.2066" x2="570.2066" y1="1661.543" y2="1681.543"/><polygon fill="#181818" points="566.2066,1671.543,570.2066,1681.543,574.2066,1671.543,570.2066,1675.543" style="stroke:#181818;stroke-width:1;"/><line style="stroke:#181818;stroke-width:1;" x1="570.2066" x2="570.2066" y1="1389.7344" y2="1414.1367"/><polygon fill="#181818" points="566.2066,1404.1367,570.2066,1414.1367,574.2066,1404.1367,570.2066,1408.1367" style="stroke:#181818;stroke-width:1;"/><line style="stroke:#181818;stroke-width:1;" x1="608.8622" x2="709.5639" y1="1377.7344" y2="1377.7344"/><polygon fill="#181818" points="705.5639,1553.5742,709.5639,1563.5742,713.5639,1553.5742,709.5639,1557.5742" style="stroke:#181818;stroke-width:1;"/><line style="stroke:#181818;stroke-width:1;" x1="709.5639" x2="709.5639" y1="1377.7344" y2="1747.5117"/><line style="stroke:#181818;stroke-width:1;" x1="709.5639" x2="582.2066" y1="1747.5117" y2="1747.5117"/><polygon fill="#181818" points="592.2066,1743.5117,582.2066,1747.5117,592.2066,1751.5117,588.2066,1747.5117" style="stroke:#181818;stroke-width:1;"/><line style="stroke:#181818;stroke-width:1;" x1="570.2066" x2="570.2066" y1="1715.5117" y2="1735.5117"/><polygon fill="#181818" points="566.2066,1725.5117,570.2066,1735.5117,574.2066,1725.5117,570.2066,1729.5117" style="stroke:#181818;stroke-width:1;"/><line style="stroke:#181818;stroke-width:1;" x1="570.2066" x2="570.2066" y1="1345.7344" y2="1365.7344"/><polygon fill="#181818" points="566.2066,1355.7344,570.2066,1365.7344,574.2066,1355.7344,570.2066,1359.7344" style="stroke:#181818;stroke-width:1;"/><line style="stroke:#181818;stroke-width:1;" x1="570.2066" x2="570.2066" y1="1851.9141" y2="1871.9141"/><polygon fill="#181818" points="566.2066,1861.9141,570.2066,1871.9141,574.2066,1861.9141,570.2066,1865.9141" style="stroke:#181818;stroke-width:1;"/><line style="stroke:#181818;stroke-width:1;" x1="615.799" x2="707.2572" y1="1955.3828" y2="1955.3828"/><polygon fill="#181818" points="703.2572,1898.8984,707.2572,1888.8984,711.2572,1898.8984,707.2572,1894.8984" style="stroke:#181818;stroke-width:1;"/><line style="stroke:#181818;stroke-width:1;" x1="707.2572" x2="707.2572" y1="1839.9141" y2="1955.3828"/><line style="stroke:#181818;stroke-width:1;" x1="707.2572" x2="582.2066" y1="1839.9141" y2="1839.9141"/><polygon fill="#181818" points="592.2066,1835.9141,582.2066,1839.9141,592.2066,1843.9141,588.2066,1839.9141" style="stroke:#181818;stroke-width:1;"/><line style="stroke:#181818;stroke-width:1;" x1="570.2066" x2="570.2066" y1="1905.8828" y2="1943.3828"/><polygon fill="#181818" points="566.2066,1933.3828,570.2066,1943.3828,574.2066,1933.3828,570.2066,1937.3828" style="stroke:#181818;stroke-width:1;"/><line style="stroke:#181818;stroke-width:1;" x1="570.2066" x2="570.2066" y1="1967.3828" y2="1987.3828"/><polygon fill="#181818" points="566.2066,1977.3828,570.2066,1987.3828,574.2066,1977.3828,570.2066,1981.3828" style="stroke:#181818;stroke-width:1;"/><line style="stroke:#181818;stroke-width:1;" x1="570.2066" x2="570.2066" y1="1803.5117" y2="1827.9141"/><polygon fill="#181818" points="566.2066,1817.9141,570.2066,1827.9141,574.2066,1817.9141,570.2066,1821.9141" style="stroke:#181818;stroke-width:1;"/><line style="stroke:#181818;stroke-width:1;" x1="612.1739" x2="729.2572" y1="1791.5117" y2="1791.5117"/><polygon fill="#181818" points="725.2572,1913.3828,729.2572,1923.3828,733.2572,1913.3828,729.2572,1917.3828" style="stroke:#181818;stroke-width:1;"/><line style="stroke:#181818;stroke-width:1;" x1="729.2572" x2="729.2572" y1="1791.5117" y2="2053.3516"/><line style="stroke:#181818;stroke-width:1;" x1="729.2572" x2="582.2066" y1="2053.3516" y2="2053.3516"/><polygon fill="#181818" points="592.2066,2049.3516,582.2066,2053.3516,592.2066,2057.3516,588.2066,2053.3516" style="stroke:#181818;stroke-width:1;"/><line style="stroke:#181818;stroke-width:1;" x1="570.2066" x2="570.2066" y1="2021.3516" y2="2041.3516"/><polygon fill="#181818" points="566.2066,2031.3516,570.2066,2041.3516,574.2066,2031.3516,570.2066,2035.3516" style="stroke:#181818;stroke-width:1;"/><line style="stroke:#181818;stroke-width:1;" x1="570.2066" x2="570.2066" y1="1759.5117" y2="1779.5117"/><polygon fill="#181818" points="566.2066,1769.5117,570.2066,1779.5117,574.2066,1769.5117,570.2066,1773.5117" style="stroke:#181818;stroke-width:1;"/><line style="stroke:#181818;stroke-width:1;" x1="570.2066" x2="570.2066" y1="2211.7227" y2="2236.125"/><polygon fill="#181818" points="566.2066,2226.125,570.2066,2236.125,574.2066,2226.125,570.2066,2230.125" style="stroke:#181818;stroke-width:1;"/><line style="stroke:#181818;stroke-width:1;" x1="607.1139" x2="715.0269" y1="2199.7227" y2="2199.7227"/><polygon fill="#181818" points="711.0269,2243.1094,715.0269,2253.1094,719.0269,2243.1094,715.0269,2247.1094" style="stroke:#181818;stroke-width:1;"/><line style="stroke:#181818;stroke-width:1;" x1="715.0269" x2="715.0269" y1="2199.7227" y2="2302.0938"/><line style="stroke:#181818;stroke-width:1;" x1="715.0269" x2="582.2066" y1="2302.0938" y2="2302.0938"/><polygon fill="#181818" points="592.2066,2298.0938,582.2066,2302.0938,592.2066,2306.0938,588.2066,2302.0938" style="stroke:#181818;stroke-width:1;"/><line style="stroke:#181818;stroke-width:1;" x1="570.2066" x2="570.2066" y1="2270.0938" y2="2290.0938"/><polygon fill="#181818" points="566.2066,2280.0938,570.2066,2290.0938,574.2066,2280.0938,570.2066,2284.0938" style="stroke:#181818;stroke-width:1;"/><line style="stroke:#181818;stroke-width:1;" x1="570.2066" x2="570.2066" y1="2167.7227" y2="2187.7227"/><polygon fill="#181818" points="566.2066,2177.7227,570.2066,2187.7227,574.2066,2177.7227,570.2066,2181.7227" style="stroke:#181818;stroke-width:1;"/><line style="stroke:#181818;stroke-width:1;" x1="570.2066" x2="570.2066" y1="2109.3516" y2="2133.7539"/><polygon fill="#181818" points="566.2066,2123.7539,570.2066,2133.7539,574.2066,2123.7539,570.2066,2127.7539" style="stroke:#181818;stroke-width:1;"/><line style="stroke:#181818;stroke-width:1;" x1="642.267" x2="737.0269" y1="2097.3516" y2="2097.3516"/><polygon fill="#181818" points="733.0269,2208.625,737.0269,2218.625,741.0269,2208.625,737.0269,2212.625" style="stroke:#181818;stroke-width:1;"/><line style="stroke:#181818;stroke-width:1;" x1="737.0269" x2="737.0269" y1="2097.3516" y2="2346.0938"/><line style="stroke:#181818;stroke-width:1;" x1="737.0269" x2="582.2066" y1="2346.0938" y2="2346.0938"/><polygon fill="#181818" points="592.2066,2342.0938,582.2066,2346.0938,592.2066,2350.0938,588.2066,2346.0938" style="stroke:#181818;stroke-width:1;"/><line style="stroke:#181818;stroke-width:1;" x1="570.2066" x2="570.2066" y1="2314.0938" y2="2334.0938"/><polygon fill="#181818" points="566.2066,2324.0938,570.2066,2334.0938,574.2066,2324.0938,570.2066,2328.0938" style="stroke:#181818;stroke-width:1;"/><line style="stroke:#181818;stroke-width:1;" x1="570.2066" x2="570.2066" y1="2065.3516" y2="2085.3516"/><polygon fill="#181818" points="566.2066,2075.3516,570.2066,2085.3516,574.2066,2075.3516,570.2066,2079.3516" style="stroke:#181818;stroke-width:1;"/><line style="stroke:#181818;stroke-width:1;" x1="570.2066" x2="570.2066" y1="2402.0938" y2="2426.4961"/><polygon fill="#181818" points="566.2066,2416.4961,570.2066,2426.4961,574.2066,2416.4961,570.2066,2420.4961" style="stroke:#181818;stroke-width:1;"/><line style="stroke:#181818;stroke-width:1;" x1="654.1352" x2="666.1352" y1="2390.0938" y2="2390.0938"/><polygon fill="#181818" points="662.1352,2433.4805,666.1352,2443.4805,670.1352,2433.4805,666.1352,2437.4805" style="stroke:#181818;stroke-width:1;"/><line style="stroke:#181818;stroke-width:1;" x1="666.1352" x2="666.1352" y1="2390.0938" y2="2492.4648"/><line style="stroke:#181818;stroke-width:1;" x1="666.1352" x2="582.2066" y1="2492.4648" y2="2492.4648"/><polygon fill="#181818" points="592.2066,2488.4648,582.2066,2492.4648,592.2066,2496.4648,588.2066,2492.4648" style="stroke:#181818;stroke-width:1;"/><line style="stroke:#181818;stroke-width:1;" x1="570.2066" x2="570.2066" y1="2460.4648" y2="2480.4648"/><polygon fill="#181818" points="566.2066,2470.4648,570.2066,2480.4648,574.2066,2470.4648,570.2066,2474.4648" style="stroke:#181818;stroke-width:1;"/><line style="stroke:#181818;stroke-width:1;" x1="570.2066" x2="570.2066" y1="2358.0938" y2="2378.0938"/><polygon fill="#181818" points="566.2066,2368.0938,570.2066,2378.0938,574.2066,2368.0938,570.2066,2372.0938" style="stroke:#181818;stroke-width:1;"/><line style="stroke:#181818;stroke-width:1;" x1="570.2066" x2="570.2066" y1="2504.4648" y2="2524.4648"/><polygon fill="#181818" points="566.2066,2514.4648,570.2066,2524.4648,574.2066,2514.4648,570.2066,2518.4648" style="stroke:#181818;stroke-width:1;"/><!--SRC=[nLRTRXfN4BxVfvXU93LA9TkAMaNG95AagkfrrGT00Jie5bYOg1TLAsmlQ6tMCgvPiv1TibP9m2bHru76wpPLfJoAB_VCUOVE-S4OJ5AflSWDQFVCcPdlcvbljfGhhMNXgzNL7A1p2kW569I1Dsnsx64xX0LiLjXUYFw8xqO9mzWefOib8objTxky6k3H230umEfUoaYobtqMDj1_- -uCdzfuxagdhDR5zeWSiaCFMBWFQ7RfB6LeFxKkFzf96RaLYlRwL_sCVXI7vVi9A3tAvkd0jH86G98tJ7B47LCw2PoKVEaFMC-7E0fnUtCHp_futb_4cezR0_BcnU74EflFv5OeC6zPmEmodRBXIEI5FHCx5SffdG3cIhb27Xwa7pvUBHQUv3FmWmpJyjX-2su2MYux8TYTkdWMe6iMDqFMsnJXi7CWiw9S-BOdAUsLf_E01SgL3IEulSJUc9_1ilWZdlheaSbnI2Q9bF6ZOQmKYe_9bwHcQu3j4ue95zMVWVqMOSK5llqAi3aYRxDCKG9ZcvP3P8gqMoRxnHQvAHQ4SqYlfdDv7O9P9ZwbL7NYlJ9L5UxT7IUj8Cm9T57sgERK2MpBHJF2TkEJYx9FjRVPYxVaTjmLYwef4YbrZQei-HkMUQi1SLWNF0bmsAmpqn9FoqiOrE4MY0X7-zoDVXAEMUYYV_018EXG_zZ_3KYpJcnIwm6pRFPi0EnDAnu6L6oB07vyQ7m_1DKA_mCU-gwmOi5p6coWgh5pqQGV4IVzWcnsAGFSfM7Kixi9TmcPdEdt84l6hqFS2caOojWnnpbZO6BrM4wY5Z0p5BF5sxOIeQ1ESmpnqAIxgN7Zg9TVmfsb6ogAmlaWlP5xg6LosqVpL6Q-jf6TkhIyD7thsr8wdqaNC_CkAekl2siPGZ9xBYaHYTS6eaRDkh8Ged7iQyaB1L1H_3ZQkTIrJudc1emFu_C-NPcekU9M7n8TLCZh0Zi-zXlii2k9T0BIDtP2vH-HdeZmnUnwDbtIBI3zoAAhEnHoOWFVFyhHWbdGLhpzJ55rUpgORMErFcuSaJCxFCNEyzdOkeqSYrKSqKPAPxKQgsaG78NKtIDBk9cqeUYHAmj04OL_rDcBLx8nwBORaNJJOAbDT7aqdwYh5CpQAeMM7Ju7mIIdMv__Er5VIABmxxxQeh2iPc0Mo9_KA3l2Fwqp0cvStnWJa_SlZQHcVsBxtJV03poAUJaXoe9lZWZo78qX8ca5q7Gvb8c-I-S-cPllpdXxZntw6Xrz9FpkKQ50lLMV3MQNlQmafeJX2aototR5HfEBc5I2jqxcGPrZfecvZbZQ2a7KvYHzwFnrYLh7toWLrly1]--></g></svg>