<svg xmlns="http://www.w3.org/2000/svg" xmlns:xlink="http://www.w3.org/1999/xlink" contentStyleType="text/css" data-diagram-type="DESCRIPTION" height="1315px" preserveAspectRatio="none" style="width:870px;height:1315px;background:#FFFFFF;" version="1.1" viewBox="0 0 870 1315" width="870px" zoomAndPan="magnify"><defs/><g><!--cluster ?? ??--><g class="cluster" data-entity="&#54665;&#46041; &#50508;&#47548;" data-source-line="6" data-uid="ent0003" id="cluster_&#54665;&#46041; &#50508;&#47548;"><rect fill="none" height="265" rx="2.5" ry="2.5" style="stroke:#181818;stroke-width:1;" width="340.24" x="170.14" y="341"/><text fill="#000000" font-family="sans-serif" font-size="14" font-weight="bold" lengthAdjust="spacing" textLength="56.3938" x="312.0631" y="355.9951">&#54665;&#46041; &#50508;&#47548;</text></g><!--cluster ???--><g class="cluster" data-entity="&#50728;&#48372;&#46377;" data-source-line="19" data-uid="ent0014" id="cluster_&#50728;&#48372;&#46377;"><rect fill="none" height="211" rx="2.5" ry="2.5" style="stroke:#181818;stroke-width:1;" width="163.07" x="168.91" y="630"/><text fill="#000000" font-family="sans-serif" font-size="14" font-weight="bold" lengthAdjust="spacing" textLength="38.6398" x="231.1251" y="644.9951">&#50728;&#48372;&#46377;</text></g><!--cluster ?? ??--><g class="cluster" data-entity="&#49688;&#47732; &#44288;&#47532;" data-source-line="28" data-uid="ent0021" id="cluster_&#49688;&#47732; &#44288;&#47532;"><rect fill="none" height="83" rx="2.5" ry="2.5" style="stroke:#181818;stroke-width:1;" width="672.19" x="191.87" y="865"/><text fill="#000000" font-family="sans-serif" font-size="14" font-weight="bold" lengthAdjust="spacing" textLength="56.3938" x="499.7681" y="879.9951">&#49688;&#47732; &#44288;&#47532;</text></g><!--cluster ?? ?? ??--><g class="cluster" data-entity="&#54876;&#46041; &#51216;&#49688; &#44228;&#49328;" data-source-line="39" data-uid="ent0030" id="cluster_&#54876;&#46041; &#51216;&#49688; &#44228;&#49328;"><rect fill="none" height="337" rx="2.5" ry="2.5" style="stroke:#181818;stroke-width:1;" width="135.37" x="182.76" y="972"/><text fill="#000000" font-family="sans-serif" font-size="14" font-weight="bold" lengthAdjust="spacing" textLength="87.0277" x="206.9311" y="986.9951">&#54876;&#46041; &#51216;&#49688; &#44228;&#49328;</text></g><!--cluster ?? & ??--><g class="cluster" data-entity="&#44208;&#49328; &amp; &#48372;&#49345;" data-source-line="52" data-uid="ent0041" id="cluster_&#44208;&#49328; &amp; &#48372;&#49345;"><rect fill="none" height="310" rx="2.5" ry="2.5" style="stroke:#181818;stroke-width:1;" width="370.58" x="148.91" y="7"/><text fill="#000000" font-family="sans-serif" font-size="14" font-weight="bold" lengthAdjust="spacing" textLength="73.4768" x="297.4616" y="21.9951">&#44208;&#49328; &amp; &#48372;&#49345;</text></g><!--entity UC1--><g class="entity" data-entity="UC1" data-source-line="7" data-uid="ent0004" id="entity_UC1"><ellipse cx="250.4395" cy="399.9981" fill="#F1F1F1" rx="64.2995" ry="24.1181" style="stroke:#181818;stroke-width:0.5;"/><text fill="#000000" font-family="sans-serif" font-size="14" lengthAdjust="spacing" textLength="94.6098" x="203.1346" y="399.3642">&#51109;&#49884;&#44036; &#50505;&#50500;&#51080;&#51020;</text><text fill="#000000" font-family="sans-serif" font-size="14" lengthAdjust="spacing" textLength="51.5198" x="224.6796" y="415.6611">&#47784;&#45768;&#53552;&#47553;</text></g><!--entity UC2--><g class="entity" data-entity="UC2" data-source-line="8" data-uid="ent0005" id="entity_UC2"><ellipse cx="250.4369" cy="482.9966" fill="#F1F1F1" rx="59.2569" ry="24.2766" style="stroke:#181818;stroke-width:0.5;"/><text fill="#000000" font-family="sans-serif" font-size="14" lengthAdjust="spacing" textLength="86.1801" x="207.3468" y="482.1148">&#51109;&#49884;&#44036; &#54256; &#49324;&#50857;</text><text fill="#000000" font-family="sans-serif" font-size="14" lengthAdjust="spacing" textLength="51.5198" x="224.677" y="498.4117">&#47784;&#45768;&#53552;&#47553;</text></g><!--entity UC3--><g class="entity" data-entity="UC3" data-source-line="9" data-uid="ent0006" id="entity_UC3"><ellipse cx="250.4395" cy="565.9981" fill="#F1F1F1" rx="64.2995" ry="24.1181" style="stroke:#181818;stroke-width:0.5;"/><text fill="#000000" font-family="sans-serif" font-size="14" lengthAdjust="spacing" textLength="94.6098" x="203.1346" y="565.3642">&#51109;&#49884;&#44036; &#45572;&#50892;&#51080;&#51020;</text><text fill="#000000" font-family="sans-serif" font-size="14" lengthAdjust="spacing" textLength="51.5198" x="224.6796" y="581.6611">&#47784;&#45768;&#53552;&#47553;</text></g><!--entity UC4--><g class="entity" data-entity="UC4" data-source-line="10" data-uid="ent0007" id="entity_UC4"><ellipse cx="451.8067" cy="483.0036" fill="#F1F1F1" rx="42.5767" ry="14.5236" style="stroke:#181818;stroke-width:0.5;"/><text fill="#000000" font-family="sans-serif" font-size="14" lengthAdjust="spacing" textLength="55.97" x="423.8218" y="487.6521">&#50508;&#47548; &#48156;&#49569;</text></g><!--entity UC5--><g class="entity" data-entity="UC5" data-source-line="20" data-uid="ent0015" id="entity_UC5"><ellipse cx="250.441" cy="680.0042" fill="#F1F1F1" rx="61.271" ry="14.6542" style="stroke:#181818;stroke-width:0.5;"/><text fill="#000000" font-family="sans-serif" font-size="14" lengthAdjust="spacing" textLength="83.3206" x="208.7807" y="684.6526">App &#45796;&#50868;&#47196;&#46300;</text></g><!--entity UC6--><g class="entity" data-entity="UC6" data-source-line="21" data-uid="ent0016" id="entity_UC6"><ellipse cx="250.4425" cy="744.9965" fill="#F1F1F1" rx="65.5325" ry="15.5065" style="stroke:#181818;stroke-width:0.5;"/><text fill="#000000" font-family="sans-serif" font-size="14" lengthAdjust="spacing" textLength="94.8764" x="203.0043" y="749.6449">&#54924;&#50896;&#44032;&#51077;/&#47196;&#44536;&#51064;</text></g><!--entity UC7--><g class="entity" data-entity="UC7" data-source-line="22" data-uid="ent0017" id="entity_UC7"><ellipse cx="250.4416" cy="810.0003" fill="#F1F1F1" rx="62.3016" ry="14.8603" style="stroke:#181818;stroke-width:0.5;"/><text fill="#000000" font-family="sans-serif" font-size="14" lengthAdjust="spacing" textLength="86.1801" x="207.3515" y="814.6488">&#52712;&#52840; &#49884;&#44036; &#49444;&#51221;</text></g><!--entity UC8--><g class="entity" data-entity="UC8" data-source-line="29" data-uid="ent0022" id="entity_UC8"><ellipse cx="250.4367" cy="915.0036" fill="#F1F1F1" rx="42.5767" ry="14.5236" style="stroke:#181818;stroke-width:0.5;"/><text fill="#000000" font-family="sans-serif" font-size="14" lengthAdjust="spacing" textLength="55.97" x="222.4518" y="919.6521">&#49688;&#47732; &#52628;&#51201;</text></g><!--entity UC9--><g class="entity" data-entity="UC9" data-source-line="30" data-uid="ent0023" id="entity_UC9"><ellipse cx="451.811" cy="916.0036" fill="#F1F1F1" rx="54.831" ry="14.5236" style="stroke:#181818;stroke-width:0.5;"/><text fill="#000000" font-family="sans-serif" font-size="14" lengthAdjust="spacing" textLength="73.3001" x="415.1609" y="920.6521">&#49688;&#47732; &#51656; &#54217;&#44032;</text></g><!--entity UC10--><g class="entity" data-entity="UC10" data-source-line="31" data-uid="ent0024" id="entity_UC10"><ellipse cx="610.2067" cy="916.0036" fill="#F1F1F1" rx="42.5767" ry="14.5236" style="stroke:#181818;stroke-width:0.5;"/><text fill="#000000" font-family="sans-serif" font-size="14" lengthAdjust="spacing" textLength="55.97" x="582.2218" y="920.6521">&#45804;&#44096; &#49373;&#49457;</text></g><!--entity UC11--><g class="entity" data-entity="UC11" data-source-line="32" data-uid="ent0025" id="entity_UC11"><ellipse cx="780.9238" cy="915.9968" fill="#F1F1F1" rx="67.1338" ry="15.8268" style="stroke:#181818;stroke-width:0.5;"/><text fill="#000000" font-family="sans-serif" font-size="14" lengthAdjust="spacing" textLength="99.06" x="731.3938" y="920.6452">&#54980;&#46972;&#51060; &#47004;&#45924; &#49688;&#47161;</text></g><!--entity UC12--><g class="entity" data-entity="UC12" data-source-line="40" data-uid="ent0031" id="entity_UC12"><ellipse cx="250.4367" cy="1022.0036" fill="#F1F1F1" rx="42.5767" ry="14.5236" style="stroke:#181818;stroke-width:0.5;"/><text fill="#000000" font-family="sans-serif" font-size="14" lengthAdjust="spacing" textLength="55.97" x="222.4518" y="1026.6521">&#44228;&#45800; &#51216;&#49688;</text></g><!--entity UC13--><g class="entity" data-entity="UC13" data-source-line="41" data-uid="ent0032" id="entity_UC13"><ellipse cx="250.4367" cy="1086.0036" fill="#F1F1F1" rx="42.5767" ry="14.5236" style="stroke:#181818;stroke-width:0.5;"/><text fill="#000000" font-family="sans-serif" font-size="14" lengthAdjust="spacing" textLength="55.97" x="222.4518" y="1090.6521">&#49885;&#49324; &#47196;&#44536;</text></g><!--entity UC14--><g class="entity" data-entity="UC14" data-source-line="42" data-uid="ent0033" id="entity_UC14"><ellipse cx="250.4367" cy="1150.0036" fill="#F1F1F1" rx="42.5767" ry="14.5236" style="stroke:#181818;stroke-width:0.5;"/><text fill="#000000" font-family="sans-serif" font-size="14" lengthAdjust="spacing" textLength="55.97" x="222.4518" y="1154.6521">&#50868;&#46041; &#51216;&#49688;</text></g><!--entity UC15--><g class="entity" data-entity="UC15" data-source-line="43" data-uid="ent0034" id="entity_UC15"><ellipse cx="250.4442" cy="1214.0036" fill="#F1F1F1" rx="51.6842" ry="14.5236" style="stroke:#181818;stroke-width:0.5;"/><text fill="#000000" font-family="sans-serif" font-size="14" lengthAdjust="spacing" textLength="68.8499" x="216.0193" y="1218.6521">&#45804;&#47532;&#44592; &#51216;&#49688;</text></g><!--entity UC16--><g class="entity" data-entity="UC16" data-source-line="44" data-uid="ent0035" id="entity_UC16"><ellipse cx="250.4367" cy="1278.0036" fill="#F1F1F1" rx="42.5767" ry="14.5236" style="stroke:#181818;stroke-width:0.5;"/><text fill="#000000" font-family="sans-serif" font-size="14" lengthAdjust="spacing" textLength="55.97" x="222.4518" y="1282.6521">&#44151;&#44592; &#51216;&#49688;</text></g><!--entity UC17--><g class="entity" data-entity="UC17" data-source-line="53" data-uid="ent0042" id="entity_UC17"><ellipse cx="250.4442" cy="286.0036" fill="#F1F1F1" rx="51.6842" ry="14.5236" style="stroke:#181818;stroke-width:0.5;"/><text fill="#000000" font-family="sans-serif" font-size="14" lengthAdjust="spacing" textLength="68.8499" x="216.0193" y="290.6521">&#52972;&#47113;&#49496; &#54869;&#51064;</text></g><!--entity UC18--><g class="entity" data-entity="UC18" data-source-line="54" data-uid="ent0043" id="entity_UC18"><ellipse cx="250.4416" cy="222.0003" fill="#F1F1F1" rx="62.3016" ry="14.8603" style="stroke:#181818;stroke-width:0.5;"/><text fill="#000000" font-family="sans-serif" font-size="14" lengthAdjust="spacing" textLength="86.1801" x="207.3515" y="226.6488">&#44208;&#49328; &#49884;&#51216; &#52376;&#47532;</text></g><!--entity UC19--><g class="entity" data-entity="UC19" data-source-line="55" data-uid="ent0044" id="entity_UC19"><ellipse cx="451.8142" cy="222.0036" fill="#F1F1F1" rx="51.6842" ry="14.5236" style="stroke:#181818;stroke-width:0.5;"/><text fill="#000000" font-family="sans-serif" font-size="14" lengthAdjust="spacing" textLength="68.8499" x="417.3893" y="226.6521">&#45804;&#47141;&#50640; &#54364;&#49884;</text></g><!--entity UC20--><g class="entity" data-entity="UC20" data-source-line="56" data-uid="ent0045" id="entity_UC20"><ellipse cx="250.4427" cy="61.9965" fill="#F1F1F1" rx="85.5327" ry="19.5065" style="stroke:#181818;stroke-width:0.5;"/><text fill="#000000" font-family="sans-serif" font-size="14" lengthAdjust="spacing" textLength="143.551" x="178.6672" y="66.645">&#50756;&#49457;&#54805; Eggi (&gt;=80%)</text></g><!--entity UC21--><g class="entity" data-entity="UC21" data-source-line="57" data-uid="ent0046" id="entity_UC21"><ellipse cx="250.4381" cy="136.0016" fill="#F1F1F1" rx="84.0081" ry="19.2016" style="stroke:#181818;stroke-width:0.5;"/><text fill="#000000" font-family="sans-serif" font-size="14" lengthAdjust="spacing" textLength="140.0342" x="180.421" y="140.6501">Golden Eggi (100%)</text></g><!--entity User--><g class="entity" data-entity="User" data-source-line="4" data-uid="ent0002" id="entity_User"><ellipse cx="21.9551" cy="754.35" fill="#F1F1F1" rx="8" ry="8" style="stroke:#181818;stroke-width:0.5;"/><path d="M21.9551,762.35 L21.9551,789.35 M8.9551,770.35 L34.9551,770.35 M21.9551,789.35 L8.9551,804.35 M21.9551,789.35 L34.9551,804.35" fill="none" style="stroke:#181818;stroke-width:0.5;"/><text fill="#000000" font-family="sans-serif" font-size="14" lengthAdjust="spacing" textLength="31.9102" x="6" y="818.8451">User</text></g><!--link User to UC1--><g class="link" data-entity-1="User" data-entity-2="UC1" data-source-line="12" data-uid="lnk8" id="link_User_UC1"><path d="M25.9,745.52 C30.5,698.59 41.75,617.56 67.91,553 C90.22,497.93 94.6,478.23 140.91,441 C156.69,428.32 171.1174,421.1957 189.7374,414.8857" fill="none" id="User-to-UC1" style="stroke:#181818;stroke-width:1;"/><polygon fill="#181818" points="195.42,412.96,185.6123,412.0602,190.6845,414.5648,188.18,419.637,195.42,412.96" style="stroke:#181818;stroke-width:1;"/></g><!--link User to UC2--><g class="link" data-entity-1="User" data-entity-2="UC2" data-source-line="13" data-uid="lnk9" id="link_User_UC2"><path d="M29.57,745.42 C41.45,688.28 71.89,581.71 140.91,524 C157.21,510.37 172.8022,502.8597 192.2122,496.5697" fill="none" id="User-to-UC2" style="stroke:#181818;stroke-width:1;"/><polygon fill="#181818" points="197.92,494.72,188.1252,493.6893,193.1635,496.2614,190.5914,501.2997,197.92,494.72" style="stroke:#181818;stroke-width:1;"/></g><!--link User to UC3--><g class="link" data-entity-1="User" data-entity-2="UC3" data-source-line="14" data-uid="lnk10" id="link_User_UC3"><path d="M38.22,747.93 C45.79,732.49 55.89,714.87 67.91,701 C110.6,651.72 169.1065,612.6628 208.5865,589.1228" fill="none" id="User-to-UC3" style="stroke:#181818;stroke-width:1;"/><polygon fill="#181818" points="213.74,586.05,203.9613,587.2235,209.4454,588.6106,208.0583,594.0948,213.74,586.05" style="stroke:#181818;stroke-width:1;"/></g><!--link UC1 to UC4--><g class="link" data-entity-1="UC1" data-entity-2="UC4" data-source-line="15" data-uid="lnk11" id="link_UC1_UC4"><path d="M294.21,417.81 C333.46,434.14 384.861,455.5436 418.171,469.4136" fill="none" id="UC1-to-UC4" style="stroke:#181818;stroke-width:1;"/><polygon fill="#181818" points="423.71,471.72,416.9391,464.5677,419.0942,469.798,413.8639,471.9531,423.71,471.72" style="stroke:#181818;stroke-width:1;"/></g><!--link UC2 to UC4--><g class="link" data-entity-1="UC2" data-entity-2="UC4" data-source-line="16" data-uid="lnk12" id="link_UC2_UC4"><path d="M310.18,483 C341.88,483 374.27,483 402.92,483" fill="none" id="UC2-to-UC4" style="stroke:#181818;stroke-width:1;"/><polygon fill="#181818" points="408.92,483,399.92,479,403.92,483,399.92,487,408.92,483" style="stroke:#181818;stroke-width:1;"/></g><!--link UC3 to UC4--><g class="link" data-entity-1="UC3" data-entity-2="UC4" data-source-line="17" data-uid="lnk13" id="link_UC3_UC4"><path d="M294.21,548.19 C333.46,531.86 384.861,510.4564 418.171,496.5864" fill="none" id="UC3-to-UC4" style="stroke:#181818;stroke-width:1;"/><polygon fill="#181818" points="423.71,494.28,413.8639,494.0469,419.0942,496.202,416.9391,501.4323,423.71,494.28" style="stroke:#181818;stroke-width:1;"/></g><!--link User to UC5--><g class="link" data-entity-1="User" data-entity-2="UC5" data-source-line="24" data-uid="lnk18" id="link_User_UC5"><path d="M38.4,766.9 C46.57,758.59 57.12,748.92 67.91,742 C109.53,715.28 158.1161,700.1022 196.4761,690.8822" fill="none" id="User-to-UC5" style="stroke:#181818;stroke-width:1;"/><polygon fill="#181818" points="202.31,689.48,192.6244,687.6941,197.4485,690.6485,194.494,695.4725,202.31,689.48" style="stroke:#181818;stroke-width:1;"/></g><!--link User to UC6--><g class="link" data-entity-1="User" data-entity-2="UC6" data-source-line="25" data-uid="lnk19" id="link_User_UC6"><path d="M38.28,779.9 C46.94,777.67 57.98,774.98 67.91,773 C109.35,764.75 150.5784,758.3748 186.4484,753.3348" fill="none" id="User-to-UC6" style="stroke:#181818;stroke-width:1;"/><polygon fill="#181818" points="192.39,752.5,182.921,749.7912,187.4386,753.1957,184.0341,757.7134,192.39,752.5" style="stroke:#181818;stroke-width:1;"/></g><!--link User to UC7--><g class="link" data-entity-1="User" data-entity-2="UC7" data-source-line="26" data-uid="lnk20" id="link_User_UC7"><path d="M38.17,785.75 C69.41,789.33 136.2191,797.0065 187.5891,802.8965" fill="none" id="User-to-UC7" style="stroke:#181818;stroke-width:1;"/><polygon fill="#181818" points="193.55,803.58,185.0642,798.5808,188.5825,803.0104,184.1529,806.5288,193.55,803.58" style="stroke:#181818;stroke-width:1;"/></g><!--link User to UC8--><g class="link" data-entity-1="User" data-entity-2="UC8" data-source-line="34" data-uid="lnk26" id="link_User_UC8"><path d="M38.17,792.8 C77.34,815.46 176.6261,872.8862 222.3261,899.3162" fill="none" id="User-to-UC8" style="stroke:#181818;stroke-width:1;"/><polygon fill="#181818" points="227.52,902.32,221.7317,894.3516,223.1917,899.8168,217.7265,901.2769,227.52,902.32" style="stroke:#181818;stroke-width:1;"/></g><!--link UC8 to UC9--><g class="link" data-entity-1="UC8" data-entity-2="UC9" data-source-line="35" data-uid="lnk27" id="link_UC8_UC9"><path d="M293.24,915.21 C323.27,915.36 358.0201,915.5287 390.5601,915.6987" fill="none" id="UC8-to-UC9" style="stroke:#181818;stroke-width:1;"/><polygon fill="#181818" points="396.56,915.73,387.581,911.683,391.5601,915.7039,387.5392,919.6829,396.56,915.73" style="stroke:#181818;stroke-width:1;"/></g><!--link UC9 to UC10--><g class="link" data-entity-1="UC9" data-entity-2="UC10" data-source-line="36" data-uid="lnk28" id="link_UC9_UC10"><path d="M507.07,916 C526.84,916 542.86,916 561.38,916" fill="none" id="UC9-to-UC10" style="stroke:#181818;stroke-width:1;"/><polygon fill="#181818" points="567.38,916,558.38,912,562.38,916,558.38,920,567.38,916" style="stroke:#181818;stroke-width:1;"/></g><!--link UC10 to UC11--><g class="link" data-entity-1="UC10" data-entity-2="UC11" data-source-line="37" data-uid="lnk29" id="link_UC10_UC11"><path d="M652.92,916 C671.17,916 687.03,916 707.43,916" fill="none" id="UC10-to-UC11" style="stroke:#181818;stroke-width:1;"/><polygon fill="#181818" points="713.43,916,704.43,912,708.43,916,704.43,920,713.43,916" style="stroke:#181818;stroke-width:1;"/></g><!--link User to UC12--><g class="link" data-entity-1="User" data-entity-2="UC12" data-source-line="46" data-uid="lnk36" id="link_User_UC12"><path d="M38.31,808.58 C46.79,821.89 57.66,838.53 67.91,853 C98.69,896.45 102.2,911.43 140.91,948 C167.77,973.37 198.9013,993.2571 221.9613,1006.6471" fill="none" id="User-to-UC12" style="stroke:#181818;stroke-width:1;"/><polygon fill="#181818" points="227.15,1009.66,221.3755,1001.6816,222.8261,1007.1493,217.3584,1008.5998,227.15,1009.66" style="stroke:#181818;stroke-width:1;"/></g><!--link User to UC13--><g class="link" data-entity-1="User" data-entity-2="UC13" data-source-line="47" data-uid="lnk37" id="link_User_UC13"><path d="M27.57,822.42 C37.03,882.73 64.62,998.44 140.91,1054 C161.08,1068.69 182.0629,1075.5214 204.0129,1079.8414" fill="none" id="User-to-UC13" style="stroke:#181818;stroke-width:1;"/><polygon fill="#181818" points="209.9,1081,201.8418,1075.3373,204.9941,1080.0345,200.297,1083.1868,209.9,1081" style="stroke:#181818;stroke-width:1;"/></g><!--link User to UC14--><g class="link" data-entity-1="User" data-entity-2="UC14" data-source-line="48" data-uid="lnk38" id="link_User_UC14"><path d="M26.28,822.45 C32.35,886.8 46.61,1013.1 67.91,1052 C88.92,1090.36 102.76,1096.61 140.91,1118 C163.02,1130.39 184.5481,1137.095 206.2781,1142.015" fill="none" id="User-to-UC14" style="stroke:#181818;stroke-width:1;"/><polygon fill="#181818" points="212.13,1143.34,204.2355,1137.4513,207.2534,1142.2359,202.4689,1145.2538,212.13,1143.34" style="stroke:#181818;stroke-width:1;"/></g><!--link User to UC15--><g class="link" data-entity-1="User" data-entity-2="UC15" data-source-line="49" data-uid="lnk39" id="link_User_UC15"><path d="M24.61,822.51 C28.47,899.71 39.99,1070.34 67.91,1121 C95.85,1171.71 156.3159,1194.1788 200.5759,1204.8088" fill="none" id="User-to-UC15" style="stroke:#181818;stroke-width:1;"/><polygon fill="#181818" points="206.41,1206.21,198.593,1200.2188,201.5483,1205.0423,196.7247,1207.9976,206.41,1206.21" style="stroke:#181818;stroke-width:1;"/></g><!--link User to UC16--><g class="link" data-entity-1="User" data-entity-2="UC16" data-source-line="50" data-uid="lnk40" id="link_User_UC16"><path d="M23.61,822.45 C25.69,910.47 34.17,1123.81 67.91,1186 C96.55,1238.8 161.3482,1260.7598 205.5782,1270.4198" fill="none" id="User-to-UC16" style="stroke:#181818;stroke-width:1;"/><polygon fill="#181818" points="211.44,1271.7,203.5008,1265.8718,206.5551,1270.6331,201.7938,1273.6875,211.44,1271.7" style="stroke:#181818;stroke-width:1;"/></g><!--link User to UC17--><g class="link" data-entity-1="User" data-entity-2="UC17" data-source-line="59" data-uid="lnk47" id="link_User_UC17"><path d="M23.49,745.78 C25.42,686.3 33.69,568.78 67.91,476 C88.99,418.85 98.64,403.86 140.91,360 C165.92,334.06 196.1612,314.8748 219.6612,301.7548" fill="none" id="User-to-UC17" style="stroke:#181818;stroke-width:1;"/><polygon fill="#181818" points="224.9,298.83,215.0919,299.7247,220.5343,301.2674,218.9916,306.7098,224.9,298.83" style="stroke:#181818;stroke-width:1;"/></g><!--link User to UC18--><g class="link" data-entity-1="User" data-entity-2="UC18" data-source-line="60" data-uid="lnk48" id="link_User_UC18"><path d="M22.99,745.57 C24.03,675.12 30.79,521.22 67.91,398 C88.6,329.29 85.76,299.9 140.91,254 C156.08,241.37 170.2455,235.1605 188.9255,230.5405" fill="none" id="User-to-UC18" style="stroke:#181818;stroke-width:1;"/><polygon fill="#181818" points="194.75,229.1,185.0529,227.3778,189.8962,230.3004,186.9736,235.1438,194.75,229.1" style="stroke:#181818;stroke-width:1;"/></g><!--link UC18 to UC19--><g class="link" data-entity-1="UC18" data-entity-2="UC19" data-source-line="61" data-uid="lnk49" id="link_UC18_UC19"><path d="M313.16,222 C340.95,222 367.36,222 393.76,222" fill="none" id="UC18-to-UC19" style="stroke:#181818;stroke-width:1;"/><polygon fill="#181818" points="399.76,222,390.76,218,394.76,222,390.76,226,399.76,222" style="stroke:#181818;stroke-width:1;"/></g><!--link UC18 to UC20--><g class="link" data-entity-1="UC18" data-entity-2="UC20" data-source-line="62" data-uid="lnk50" id="link_UC18_UC20"><path d="M197.92,213.73 C162.62,205.15 118.6,187.88 96.25,153.5 C70.08,113.24 125.6161,89.7626 178.5161,76.2726" fill="none" id="UC18-to-UC20" style="stroke:#181818;stroke-width:1;stroke-dasharray:7.0,7.0;"/><polygon fill="#181818" points="184.33,74.79,174.6207,73.138,179.4851,76.0255,176.5975,80.8899,184.33,74.79" style="stroke:#181818;stroke-width:1;"/><text fill="#000000" font-family="sans-serif" font-size="13" lengthAdjust="spacing" textLength="63.0068" x="68.91" y="149.5669">&#171;include&#187;</text></g><!--link UC18 to UC21--><g class="link" data-entity-1="UC18" data-entity-2="UC21" data-source-line="63" data-uid="lnk51" id="link_UC18_UC21"><path d="M250.44,207.02 C250.44,192.78 250.44,177.26 250.44,161.65" fill="none" id="UC18-to-UC21" style="stroke:#181818;stroke-width:1;stroke-dasharray:7.0,7.0;"/><polygon fill="#181818" points="250.44,155.65,246.44,164.65,250.44,160.65,254.44,164.65,250.44,155.65" style="stroke:#181818;stroke-width:1;"/><text fill="#000000" font-family="sans-serif" font-size="13" lengthAdjust="spacing" textLength="61.1851" x="208.44" y="185.7369">&#171;extend&#187;</text></g><!--SRC=[XPHTRz9W5CVl-obEccZqOaePuyLC4cEC7y3ipfi6Af9X8T0b6cC2MsSWO8PnA2-5i8HjOBWe6n4Mzudwd7u77qg1FasflJg7qr_FS_xF_v2HtYcWP26VJhrN89dEImabdPMvmc5QpebvyGFanCIXc9BUA9yo4YpAefpAI1md9fHi7WuAKfxZx7U0DtzMo5aBi54ZL_SyVEO0ZWfIGYpG6lOkiQePkahB5Moes2jZj_PM9h-7f5esLPrSbtYm7x401oy5Rzmyqm6FnzWU-S51RvYKLUpK_jzxby6jUO3e6dwzMB_7F1OKuhvm2qLWPoTkdT-H19t9BaUhTXoYST0HxwxZZQxO79BRAJaVkJHzaSi1gGwmFIKN6lcXyLiEjkU4p7ODEtL3BsBlz2dbZDaSktFUYmipAio6U3U4rIMg0-mtUCzs4LQ7FMSITYOHvupb9XbDmPWMoTNOxPrb3V-SOx_aSm5HB-YwJ2rJeVDkKoVcf4XrR4oAW2TTL2S-hOG0esb79Trxx4w1z3JoRG2BvlqxtWiKM7MYzCwZTXoZSMpbdi32985L9ZZNhALPQzQlqpPWtAfuhBiKep-Iwj1-nMyCTa-gNRfPi3I57yMk1xNV-ZX-LCWbDBreOwxxW4kCSQyncVapAohiMaPc0Ua0pYp4P8nVwNSsmXitEfKQ7WBTHZmfkLtwTqpw5JnjWjbgUApKvcmHPgBbH-bUqQ40RvgM_psvg5l0_YN-geFvNQFqzdQCmR6bKcURpGQyIgNIy2Z-F1fuy9XtGq76tw-pcQGasuGGS04suJ8sdTAPBNmkh8mkn9RP4-klCG3FO7y_BISoHqaf7dUM1AiaVLGaEHcF_mC0]--></g></svg>