<svg xmlns="http://www.w3.org/2000/svg" xmlns:xlink="http://www.w3.org/1999/xlink" contentStyleType="text/css" data-diagram-type="DESCRIPTION" height="435px" preserveAspectRatio="none" style="width:1591px;height:435px;background:#FFFFFF;" version="1.1" viewBox="0 0 1591 435" width="1591px" zoomAndPan="magnify"><defs/><g><!--cluster Mobile App--><g class="cluster" data-entity="Mobile App" data-source-line="5" data-uid="ent0002" id="cluster_Mobile App"><path d="M8.5,6 L97.916,6 A3.75,3.75 0 0 1 100.416,8.5 L107.416,28.2969 L1160.03,28.2969 A2.5,2.5 0 0 1 1162.53,30.7969 L1162.53,210.5 A2.5,2.5 0 0 1 1160.03,213 L8.5,213 A2.5,2.5 0 0 1 6,210.5 L6,8.5 A2.5,2.5 0 0 1 8.5,6" fill="none" style="stroke:#000000;stroke-width:1.5;"/><line style="stroke:#000000;stroke-width:1.5;" x1="6" x2="107.416" y1="28.2969" y2="28.2969"/><text fill="#000000" font-family="sans-serif" font-size="14" font-weight="bold" lengthAdjust="spacing" textLength="88.416" x="10" y="20.9951">Mobile App</text></g><!--cluster Watch App--><g class="cluster" data-entity="Watch App" data-source-line="14" data-uid="ent0008" id="cluster_Watch App"><path d="M505.38,237 L591.9796,237 A3.75,3.75 0 0 1 594.4796,239.5 L601.4796,259.2969 L800.82,259.2969 A2.5,2.5 0 0 1 803.32,261.7969 L803.32,425.5 A2.5,2.5 0 0 1 800.82,428 L505.38,428 A2.5,2.5 0 0 1 502.88,425.5 L502.88,239.5 A2.5,2.5 0 0 1 505.38,237" fill="none" style="stroke:#000000;stroke-width:1.5;"/><line style="stroke:#000000;stroke-width:1.5;" x1="502.88" x2="601.4796" y1="259.2969" y2="259.2969"/><text fill="#000000" font-family="sans-serif" font-size="14" font-weight="bold" lengthAdjust="spacing" textLength="85.5996" x="506.88" y="251.9951">Watch App</text></g><!--cluster Backup--><g class="cluster" data-entity="Backup" data-source-line="20" data-uid="ent0011" id="cluster_Backup"><path d="M1319.03,24 L1377.7458,24 A3.75,3.75 0 0 1 1380.2458,26.5 L1387.2458,46.2969 L1581.73,46.2969 A2.5,2.5 0 0 1 1584.23,48.7969 L1584.23,212.5 A2.5,2.5 0 0 1 1581.73,215 L1319.03,215 A2.5,2.5 0 0 1 1316.53,212.5 L1316.53,26.5 A2.5,2.5 0 0 1 1319.03,24" fill="none" style="stroke:#000000;stroke-width:1.5;"/><line style="stroke:#000000;stroke-width:1.5;" x1="1316.53" x2="1387.2458" y1="46.2969" y2="46.2969"/><text fill="#000000" font-family="sans-serif" font-size="14" font-weight="bold" lengthAdjust="spacing" textLength="57.7158" x="1320.53" y="38.9951">Backup</text></g><!--entity UI & Logic--><g class="entity" data-entity="UI &amp; Logic" data-source-line="6" data-uid="ent0003" id="entity_UI &amp; Logic"><rect fill="#F1F1F1" height="52.5938" rx="2.5" ry="2.5" style="stroke:#181818;stroke-width:0.5;" width="118.332" x="97.77" y="56.7"/><text fill="#000000" font-family="sans-serif" font-size="14" font-style="italic" lengthAdjust="spacing" textLength="96.332" x="108.77" y="79.6951">&#171;component&#187;</text><text fill="#000000" font-family="sans-serif" font-size="14" lengthAdjust="spacing" textLength="71.0322" x="121.4199" y="95.992">UI &amp; Logic</text></g><!--entity ML Posture Classifier\n(??/??/??? ??)--><g class="entity" data-entity="ML Posture Classifier\n(&#50505;&#51020;/&#45572;&#50880;/&#49436;&#51080;&#51020; &#48516;&#47448;)" data-source-line="7" data-uid="ent0004" id="entity_ML Posture Classifier\n(&#50505;&#51020;/&#45572;&#50880;/&#49436;&#51080;&#51020; &#48516;&#47448;)"><rect fill="#F1F1F1" height="68.8906" rx="2.5" ry="2.5" style="stroke:#181818;stroke-width:0.5;" width="165.7217" x="570.24" y="128.55"/><text fill="#000000" font-family="sans-serif" font-size="14" font-style="italic" lengthAdjust="spacing" textLength="96.332" x="604.9348" y="151.5451">&#171;component&#187;</text><text fill="#000000" font-family="sans-serif" font-size="14" lengthAdjust="spacing" textLength="145.7217" x="580.24" y="167.842">ML Posture Classifier</text><text fill="#000000" font-family="sans-serif" font-size="14" lengthAdjust="spacing" textLength="140.7271" x="580.24" y="184.1389">(&#50505;&#51020;/&#45572;&#50880;/&#49436;&#51080;&#51020; &#48516;&#47448;)</text></g><!--entity UsageStats & NotificationListener--><g class="entity" data-entity="UsageStats &amp; NotificationListener" data-source-line="8" data-uid="ent0005" id="entity_UsageStats &amp; NotificationListener"><rect fill="#F1F1F1" height="52.5938" rx="2.5" ry="2.5" style="stroke:#181818;stroke-width:0.5;" width="255.833" x="525.18" y="40.7"/><text fill="#000000" font-family="sans-serif" font-size="14" font-style="italic" lengthAdjust="spacing" textLength="96.332" x="604.9305" y="63.6951">&#171;component&#187;</text><text fill="#000000" font-family="sans-serif" font-size="14" lengthAdjust="spacing" textLength="235.833" x="535.18" y="79.992">UsageStats &amp; NotificationListener</text></g><!--entity Data Storage\n(Room DB / SharedPref)--><g class="entity" data-entity="Data Storage\n(Room DB / SharedPref)" data-source-line="9" data-uid="ent0006" id="entity_Data Storage\n(Room DB / SharedPref)"><rect fill="#F1F1F1" height="68.8906" rx="2.5" ry="2.5" style="stroke:#181818;stroke-width:0.5;" width="187.207" x="959.32" y="90.55"/><text fill="#000000" font-family="sans-serif" font-size="14" font-style="italic" lengthAdjust="spacing" textLength="96.332" x="1004.7575" y="113.5451">&#171;component&#187;</text><text fill="#000000" font-family="sans-serif" font-size="14" lengthAdjust="spacing" textLength="92.6543" x="969.32" y="129.842">Data Storage</text><text fill="#000000" font-family="sans-serif" font-size="14" lengthAdjust="spacing" textLength="167.207" x="969.32" y="146.1389">(Room DB / SharedPref)</text></g><!--entity SAP + BLE Communication (Mobile)--><g class="entity" data-entity="SAP + BLE Communication (Mobile)" data-source-line="10" data-uid="ent0007" id="entity_SAP + BLE Communication (Mobile)"><rect fill="#F1F1F1" height="52.5938" rx="2.5" ry="2.5" style="stroke:#181818;stroke-width:0.5;" width="269.8809" x="22" y="144.7"/><text fill="#000000" font-family="sans-serif" font-size="14" font-style="italic" lengthAdjust="spacing" textLength="96.332" x="108.7744" y="167.6951">&#171;component&#187;</text><text fill="#000000" font-family="sans-serif" font-size="14" lengthAdjust="spacing" textLength="249.8809" x="32" y="183.992">SAP + BLE Communication (Mobile)</text></g><!--entity Sensor & Character UI--><g class="entity" data-entity="Sensor &amp; Character UI" data-source-line="15" data-uid="ent0009" id="entity_Sensor &amp; Character UI"><rect fill="#F1F1F1" height="52.5938" rx="2.5" ry="2.5" style="stroke:#181818;stroke-width:0.5;" width="175.75" x="565.23" y="359.7"/><text fill="#000000" font-family="sans-serif" font-size="14" font-style="italic" lengthAdjust="spacing" textLength="96.332" x="604.939" y="382.6951">&#171;component&#187;</text><text fill="#000000" font-family="sans-serif" font-size="14" lengthAdjust="spacing" textLength="155.75" x="575.23" y="398.992">Sensor &amp; Character UI</text></g><!--entity SAP + BLE Communication (Watch)--><g class="entity" data-entity="SAP + BLE Communication (Watch)" data-source-line="16" data-uid="ent0010" id="entity_SAP + BLE Communication (Watch)"><rect fill="#F1F1F1" height="52.5938" rx="2.5" ry="2.5" style="stroke:#181818;stroke-width:0.5;" width="268.4385" x="518.88" y="271.7"/><text fill="#000000" font-family="sans-serif" font-size="14" font-style="italic" lengthAdjust="spacing" textLength="96.332" x="604.9332" y="294.6951">&#171;component&#187;</text><text fill="#000000" font-family="sans-serif" font-size="14" lengthAdjust="spacing" textLength="248.4385" x="528.88" y="310.992">SAP + BLE Communication (Watch)</text></g><!--entity Play Store Auto Backup--><g class="entity" data-entity="Play Store Auto Backup" data-source-line="21" data-uid="ent0012" id="entity_Play Store Auto Backup"><rect fill="#F1F1F1" height="52.5938" rx="2.5" ry="2.5" style="stroke:#181818;stroke-width:0.5;" width="184.1104" x="1358.32" y="58.7"/><text fill="#000000" font-family="sans-serif" font-size="14" font-style="italic" lengthAdjust="spacing" textLength="96.332" x="1402.2092" y="81.6951">&#171;component&#187;</text><text fill="#000000" font-family="sans-serif" font-size="14" lengthAdjust="spacing" textLength="164.1104" x="1368.32" y="97.992">Play Store Auto Backup</text></g><!--entity Optional: Google Drive Backup--><g class="entity" data-entity="Optional: Google Drive Backup" data-source-line="22" data-uid="ent0013" id="entity_Optional: Google Drive Backup"><rect fill="#F1F1F1" height="52.5938" rx="2.5" ry="2.5" style="stroke:#181818;stroke-width:0.5;" width="235.7012" x="1332.53" y="146.7"/><text fill="#000000" font-family="sans-serif" font-size="14" font-style="italic" lengthAdjust="spacing" textLength="96.332" x="1402.2146" y="169.6951">&#171;component&#187;</text><text fill="#000000" font-family="sans-serif" font-size="14" lengthAdjust="spacing" textLength="215.7012" x="1342.53" y="185.992">Optional: Google Drive Backup</text></g><!--link UI & Logic to ML Posture Classifier\n(??/??/??? ??)--><g class="link" data-entity-1="UI &amp; Logic" data-entity-2="ML Posture Classifier\n(&#50505;&#51020;/&#45572;&#50880;/&#49436;&#51080;&#51020; &#48516;&#47448;)" data-source-line="26" data-uid="lnk14" id="link_UI &amp; Logic_ML Posture Classifier\n(&#50505;&#51020;/&#45572;&#50880;/&#49436;&#51080;&#51020; &#48516;&#47448;)"><path d="M216.57,92.49 C304.39,106.71 464.4871,132.6312 564.2471,148.7812" fill="none" id="UI &amp; Logic-to-ML Posture Classifier\n(&#50505;&#51020;/&#45572;&#50880;/&#49436;&#51080;&#51020; &#48516;&#47448;)" style="stroke:#181818;stroke-width:1;"/><polygon fill="#181818" points="570.17,149.74,561.9249,144.3531,565.2343,148.941,560.6464,152.2503,570.17,149.74" style="stroke:#181818;stroke-width:1;"/><text fill="#000000" font-family="sans-serif" font-size="13" lengthAdjust="spacing" textLength="163.1143" x="322.88" y="108.0669">&#49468;&#49436; &#45936;&#51060;&#53552; &#8594; &#51088;&#49464; &#48516;&#47448; &#50836;&#52397;</text></g><!--link ML Posture Classifier\n(??/??/??? ??) to Data Storage\n(Room DB / SharedPref)--><g class="link" data-entity-1="ML Posture Classifier\n(&#50505;&#51020;/&#45572;&#50880;/&#49436;&#51080;&#51020; &#48516;&#47448;)" data-entity-2="Data Storage\n(Room DB / SharedPref)" data-source-line="27" data-uid="lnk15" id="link_ML Posture Classifier\n(&#50505;&#51020;/&#45572;&#50880;/&#49436;&#51080;&#51020; &#48516;&#47448;)_Data Storage\n(Room DB / SharedPref)"><path d="M736.3,155.31 C791,150.17 864.47,143.24 929.32,137 C938.9,136.08 942.9281,135.6904 952.9081,134.7204" fill="none" id="ML Posture Classifier\n(&#50505;&#51020;/&#45572;&#50880;/&#49436;&#51080;&#51020; &#48516;&#47448;)-to-Data Storage\n(Room DB / SharedPref)" style="stroke:#181818;stroke-width:1;"/><polygon fill="#181818" points="958.88,134.14,949.5353,131.0294,953.9035,134.6237,950.3092,138.9919,958.88,134.14" style="stroke:#181818;stroke-width:1;"/><text fill="#000000" font-family="sans-serif" font-size="13" lengthAdjust="spacing" textLength="80.0247" x="834.32" y="133.0669">&#48516;&#47448; &#44208;&#44284; &#52880;&#49905;</text></g><!--link UsageStats & NotificationListener to Data Storage\n(Room DB / SharedPref)--><g class="link" data-entity-1="UsageStats &amp; NotificationListener" data-entity-2="Data Storage\n(Room DB / SharedPref)" data-source-line="28" data-uid="lnk16" id="link_UsageStats &amp; NotificationListener_Data Storage\n(Room DB / SharedPref)"><path d="M781.34,85.55 C839.08,93.97 900.1929,102.8736 953.0929,110.5936" fill="none" id="UsageStats &amp; NotificationListener-to-Data Storage\n(Room DB / SharedPref)" style="stroke:#181818;stroke-width:1;"/><polygon fill="#181818" points="959.03,111.46,950.702,106.2023,954.0824,110.738,949.5467,114.1184,959.03,111.46" style="stroke:#181818;stroke-width:1;"/><text fill="#000000" font-family="sans-serif" font-size="13" lengthAdjust="spacing" textLength="108.077" x="820.32" y="89.0669">&#54876;&#46041;&#183;&#50508;&#47548; &#47196;&#44536; &#51200;&#51109;</text></g><!--link SAP + BLE Communication (Mobile) to SAP + BLE Communication (Watch)--><g class="link" data-entity-1="SAP + BLE Communication (Mobile)" data-entity-2="SAP + BLE Communication (Watch)" data-source-line="30" data-uid="lnk17" id="link_SAP + BLE Communication (Mobile)_SAP + BLE Communication (Watch)"><path d="M267.9512,199.2732 C352.0512,220.8832 458.179,248.1561 542.239,269.7661" fill="none" id="SAP + BLE Communication (Mobile)-SAP + BLE Communication (Watch)" style="stroke:#181818;stroke-width:1;"/><polygon fill="#181818" points="262.14,197.78,269.8613,203.894,266.9827,199.0244,271.8523,196.1457,262.14,197.78" style="stroke:#181818;stroke-width:1;"/><polygon fill="#181818" points="548.05,271.26,540.3294,265.1451,543.2075,270.0151,538.3375,272.8932,548.05,271.26" style="stroke:#181818;stroke-width:1;"/><text fill="#000000" font-family="sans-serif" font-size="13" lengthAdjust="spacing" textLength="92.2323" x="358.38" y="212.0669">&#49468;&#49436;/&#49345;&#53468; &#46041;&#44592;&#54868;</text></g><!--link Data Storage\n(Room DB / SharedPref) to Play Store Auto Backup--><g class="link" data-entity-1="Data Storage\n(Room DB / SharedPref)" data-entity-2="Play Store Auto Backup" data-source-line="32" data-uid="lnk18" id="link_Data Storage\n(Room DB / SharedPref)_Play Store Auto Backup"><path d="M1146.64,115.62 C1210.33,109.18 1288.5305,101.2743 1351.9505,94.8543" fill="none" id="Data Storage\n(Room DB / SharedPref)-to-Play Store Auto Backup" style="stroke:#181818;stroke-width:1;"/><polygon fill="#181818" points="1357.92,94.25,1348.5629,91.1768,1352.9454,94.7536,1349.3686,99.1361,1357.92,94.25" style="stroke:#181818;stroke-width:1;"/><text fill="#000000" font-family="sans-serif" font-size="13" lengthAdjust="spacing" textLength="120.037" x="1179.53" y="97.0669">&#49884;&#49828;&#53596; &#47112;&#48296; &#51088;&#46041; &#48177;&#50629;</text></g><!--link Data Storage\n(Room DB / SharedPref) to Optional: Google Drive Backup--><g class="link" data-entity-1="Data Storage\n(Room DB / SharedPref)" data-entity-2="Optional: Google Drive Backup" data-source-line="33" data-uid="lnk19" id="link_Data Storage\n(Room DB / SharedPref)_Optional: Google Drive Backup"><path d="M1146.64,136.25 C1202,142.97 1266.8737,150.847 1326.1037,158.037" fill="none" id="Data Storage\n(Room DB / SharedPref)-to-Optional: Google Drive Backup" style="stroke:#181818;stroke-width:1;"/><polygon fill="#181818" points="1332.06,158.76,1323.6076,153.7046,1327.0964,158.1575,1322.6436,161.6463,1332.06,158.76" style="stroke:#181818;stroke-width:1;"/><text fill="#000000" font-family="sans-serif" font-size="13" lengthAdjust="spacing" textLength="114.6829" x="1182.53" y="137.0669">&#49440;&#53469;&#51201; Drive &#50629;&#47196;&#46300;</text></g><!--SRC=[fP9HQzDG5CVVyoaEUz29bBwNKTXQaK6dnL1yK1-ksMqRbkQ6v5OO8hGqaxfLEdHbhRQbWXCV77HTSKNxv4VnCJdv3jwaQKLiMQjv2Pnpx_dzp__-DPhbm1cOQYxFOLSrgS9LfalMdgeRn2G5K5Z1O3hLkSptDGh-0QBdD2f9DoEH2EomfweeRne6OBECf-SWgf91b3sIex3skxq6poM0Hvbjk04fbbEL9x2nCHiUZ_lDdHIacSMB9eM4HYnBpQhKVAolO-CLTcfHjshZ-r8KxJPsgw80xbVRFMlUcZCfOmcyp0ct1EuUusAIGlpDKgh5gKxDENUIX1EGEJF5LG5zm5W1abiG1JbFJBgRDcbs7ahUJCDjs4hTWGGh58fw28BroUv_NNaHElUGS2M_qBXPD_HDfhh5JB5CGeWX2gScPBPNKHCCN2Z6xL_WwG7Wzw5N_-BQDUzmvEi1c2dQ4l-YCH6JriX-u9HusQ98pwGtHyrzmuSJBGPt6HEXWQIfFgCBpa-rECEISsa3zXhOQGQk_96QI2J-7qc90TfZKGVtTHyxGy_kmy-NRm2xnsYFmcE0xqvmS2xzEoNGk5oUObEeC-WxbsF0RyTuT24ja-2LA5whxTPRFwwmKNC_ZS7zq7QkHiBa4dRF96cP50UuQ_CrDJYAbR9N4JxNMywexxLE16GvhG5dKSI2Jp2EsdZuqJiGytjLT_3PVq112dEy4kcQZFhxzBnA1tlbi2C0mZttRViN]--></g></svg>