<svg xmlns="http://www.w3.org/2000/svg" xmlns:xlink="http://www.w3.org/1999/xlink" contentStyleType="text/css" data-diagram-type="ACTIVITY" height="1029px" preserveAspectRatio="none" style="width:566px;height:1029px;background:#FFFFFF;" version="1.1" viewBox="0 0 566 1029" width="566px" zoomAndPan="magnify"><defs/><g><ellipse cx="261.8591" cy="20" fill="#222222" rx="10" ry="10" style="stroke:#222222;stroke-width:1;"/><rect fill="#F1F1F1" height="33.9688" rx="12.5" ry="12.5" style="stroke:#181818;stroke-width:0.5;" width="79.0149" x="222.3516" y="50"/><text fill="#000000" font-family="sans-serif" font-size="12" lengthAdjust="spacing" textLength="59.0149" x="232.3516" y="71.1387">&#49436;&#48708;&#49828; &#49884;&#51089;</text><rect fill="#F1F1F1" height="33.9688" rx="12.5" ry="12.5" style="stroke:#181818;stroke-width:0.5;" width="125.3129" x="199.2027" y="147.9688"/><text fill="#000000" font-family="sans-serif" font-size="12" lengthAdjust="spacing" textLength="105.3129" x="209.2027" y="169.1074">&#49688;&#47732;&#51032; &#51656;(&#49884;&#44036;) &#52769;&#51221;</text><rect fill="#F1F1F1" height="33.9688" rx="12.5" ry="12.5" style="stroke:#181818;stroke-width:0.5;" width="137.8147" x="192.9517" y="201.9375"/><text fill="#000000" font-family="sans-serif" font-size="12" lengthAdjust="spacing" textLength="117.8147" x="202.9517" y="223.0762">&#44592;&#49345; &#49884;&#44036;(07:00) &#46020;&#45804;</text><rect fill="#F1F1F1" height="33.9688" rx="12.5" ry="12.5" style="stroke:#181818;stroke-width:0.5;" width="71.7892" x="225.9645" y="255.9063"/><text fill="#000000" font-family="sans-serif" font-size="12" lengthAdjust="spacing" textLength="51.7892" x="235.9645" y="277.0449">&#55152; &#50508; &#44648;&#44592;</text><polygon fill="#F1F1F1" points="182.8556,309.875,340.8626,309.875,352.8626,322.6797,340.8626,335.4844,182.8556,335.4844,170.8556,322.6797,182.8556,309.875" style="stroke:#181818;stroke-width:0.5;"/><text fill="#000000" font-family="sans-serif" font-size="11" lengthAdjust="spacing" textLength="155.6652" x="182.8556" y="320.0854">&#49444;&#51221;&#46108; &#52712;&#52840; &#49884;&#44036;&#50640; &#49688;&#47732;&#51012; &#52712;&#54664;&#44256;</text><text fill="#000000" font-family="sans-serif" font-size="11" lengthAdjust="spacing" textLength="158.007" x="182.8556" y="332.8901">&#54648;&#46300;&#54256; &#49324;&#50857;&#51060; &#44048;&#51648;&#46104;&#51648; &#50506;&#50520;&#45208;&#50836;?</text><text fill="#000000" font-family="sans-serif" font-size="11" lengthAdjust="spacing" textLength="10.1199" x="160.7357" y="320.0854">&#50696;</text><text fill="#000000" font-family="sans-serif" font-size="11" lengthAdjust="spacing" textLength="30.3598" x="352.8626" y="320.0854">&#50500;&#45768;&#50836;</text><rect fill="#F1F1F1" height="33.9688" rx="12.5" ry="12.5" style="stroke:#181818;stroke-width:0.5;" width="146.2405" x="87.7353" y="345.4844"/><text fill="#000000" font-family="sans-serif" font-size="12" lengthAdjust="spacing" textLength="126.2405" x="97.7353" y="366.623">&#51216;&#49688; += 10 (&#51216;&#49688; &#51200;&#51109;)</text><rect fill="#F1F1F1" height="33.9688" rx="12.5" ry="12.5" style="stroke:#181818;stroke-width:0.5;" width="77.4532" x="324.136" y="345.4844"/><text fill="#000000" font-family="sans-serif" font-size="12" lengthAdjust="spacing" textLength="57.4532" x="334.136" y="366.623">&#51216;&#49688; += 0</text><polygon fill="#F1F1F1" points="261.8591,385.4531,273.8591,397.4531,261.8591,409.4531,249.8591,397.4531,261.8591,385.4531" style="stroke:#181818;stroke-width:0.5;"/><rect fill="#F1F1F1" height="33.9688" rx="12.5" ry="12.5" style="stroke:#181818;stroke-width:0.5;" width="67.9748" x="227.8717" y="429.4531"/><text fill="#000000" font-family="sans-serif" font-size="12" lengthAdjust="spacing" textLength="47.9748" x="237.8717" y="450.5918">&#51216;&#49688; &#44592;&#47197;</text><rect fill="#F1F1F1" height="33.9688" rx="12.5" ry="12.5" style="stroke:#181818;stroke-width:0.5;" width="155.0219" x="184.3481" y="483.4219"/><text fill="#000000" font-family="sans-serif" font-size="12" lengthAdjust="spacing" textLength="135.0219" x="194.3481" y="504.5605">&#54876;&#46041;(&#54665;&#46041; &#48320;&#54868;, &#51216;&#49688; &#54869;&#51064;)</text><rect fill="#F1F1F1" height="33.9688" rx="12.5" ry="12.5" style="stroke:#181818;stroke-width:0.5;" width="134.0003" x="194.8589" y="537.7773"/><text fill="#000000" font-family="sans-serif" font-size="12" lengthAdjust="spacing" textLength="114.0003" x="204.8589" y="558.916">&#52712;&#52840;&#49884;&#44036;(22:00) &#46020;&#45804;</text><rect fill="#F1F1F1" height="33.9688" rx="12.5" ry="12.5" style="stroke:#181818;stroke-width:0.5;" width="119.764" x="201.9771" y="591.7461"/><text fill="#000000" font-family="sans-serif" font-size="12" lengthAdjust="spacing" textLength="99.764" x="211.9771" y="612.8848">&#44208;&#49328; &#53440;&#51076; &#50508;&#47548; &#51204;&#49569;</text><rect fill="#F1F1F1" height="33.9688" rx="12.5" ry="12.5" style="stroke:#181818;stroke-width:0.5;" width="67.9748" x="227.8717" y="645.7148"/><text fill="#000000" font-family="sans-serif" font-size="12" lengthAdjust="spacing" textLength="47.9748" x="237.8717" y="666.8535">&#44208;&#49328; &#49884;&#51089;</text><rect fill="#555555" height="6" rx="2.5" ry="2.5" style="stroke:#555555;stroke-width:1;" width="501.7182" x="11" y="748.0859"/><rect fill="#F1F1F1" height="33.9688" rx="12.5" ry="12.5" style="stroke:#181818;stroke-width:0.5;" width="152.8843" x="23" y="774.0859"/><text fill="#000000" font-family="sans-serif" font-size="12" lengthAdjust="spacing" textLength="132.8843" x="33" y="795.2246">&#53945;&#48324;&#54620; &#48152;&#49689;&#51060; &#52972;&#47113;&#49496; &#51228;&#44277;</text><rect fill="#F1F1F1" height="33.9688" rx="12.5" ry="12.5" style="stroke:#181818;stroke-width:0.5;" width="141.8442" x="203.8843" y="774.0859"/><text fill="#000000" font-family="sans-serif" font-size="12" lengthAdjust="spacing" textLength="121.8442" x="213.8843" y="795.2246">&#51068;&#48152; &#48152;&#49689;&#51060; &#52972;&#47113;&#49496; &#51228;&#44277;</text><rect fill="#F1F1F1" height="33.9688" rx="12.5" ry="12.5" style="stroke:#181818;stroke-width:0.5;" width="126.9897" x="373.7285" y="774.0859"/><text fill="#000000" font-family="sans-serif" font-size="12" lengthAdjust="spacing" textLength="106.9897" x="383.7285" y="795.2246">&#45580;&#47084;&#48537;&#51008; &#48152;&#49689;&#51060; &#51228;&#44277;</text><rect fill="#555555" height="6" rx="2.5" ry="2.5" style="stroke:#555555;stroke-width:1;" width="501.7182" x="11" y="828.0547"/><polygon fill="#F1F1F1" points="216.7883,699.6836,306.9299,699.6836,318.9299,711.6836,306.9299,723.6836,216.7883,723.6836,204.7883,711.6836,216.7883,699.6836" style="stroke:#181818;stroke-width:0.5;"/><text fill="#000000" font-family="sans-serif" font-size="11" lengthAdjust="spacing" textLength="10.1199" x="265.8591" y="733.894">&#50696;</text><text fill="#000000" font-family="sans-serif" font-size="11" lengthAdjust="spacing" textLength="90.1416" x="216.7883" y="715.4917">&#50640;&#45320;&#51648; &#51216;&#49688; &#8805; 80?</text><polygon fill="#F1F1F1" points="261.8591,854.0547,273.8591,866.0547,261.8591,878.0547,249.8591,866.0547,261.8591,854.0547" style="stroke:#181818;stroke-width:0.5;"/><rect fill="#F1F1F1" height="33.9688" rx="12.5" ry="12.5" style="stroke:#181818;stroke-width:0.5;" width="108.724" x="207.4971" y="898.0547"/><text fill="#000000" font-family="sans-serif" font-size="12" lengthAdjust="spacing" textLength="88.724" x="217.4971" y="919.1934">&#49352;&#47196;&#50868; &#55152; &#50508; &#51228;&#44277;</text><polygon fill="#F1F1F1" points="261.8591,103.9688,273.8591,115.9688,261.8591,127.9688,249.8591,115.9688,261.8591,103.9688" style="stroke:#181818;stroke-width:0.5;"/><polygon fill="#F1F1F1" points="234.811,952.0234,288.9072,952.0234,300.9072,964.0234,288.9072,976.0234,234.811,976.0234,222.811,964.0234,234.811,952.0234" style="stroke:#181818;stroke-width:0.5;"/><text fill="#000000" font-family="sans-serif" font-size="11" lengthAdjust="spacing" textLength="54.0962" x="234.811" y="967.8315">&#49436;&#48708;&#49828; &#51648;&#49549;</text><ellipse cx="261.8591" cy="1007.0234" fill="none" rx="11" ry="11" style="stroke:#222222;stroke-width:1;"/><ellipse cx="261.8591" cy="1007.0234" fill="#222222" rx="6" ry="6" style="stroke:#222222;stroke-width:1;"/><line style="stroke:#181818;stroke-width:1;" x1="261.8591" x2="261.8591" y1="30" y2="50"/><polygon fill="#181818" points="257.8591,40,261.8591,50,265.8591,40,261.8591,44" style="stroke:#181818;stroke-width:1;"/><line style="stroke:#181818;stroke-width:1;" x1="261.8591" x2="261.8591" y1="181.9375" y2="201.9375"/><polygon fill="#181818" points="257.8591,191.9375,261.8591,201.9375,265.8591,191.9375,261.8591,195.9375" style="stroke:#181818;stroke-width:1;"/><line style="stroke:#181818;stroke-width:1;" x1="261.8591" x2="261.8591" y1="235.9063" y2="255.9063"/><polygon fill="#181818" points="257.8591,245.9063,261.8591,255.9063,265.8591,245.9063,261.8591,249.9063" style="stroke:#181818;stroke-width:1;"/><line style="stroke:#181818;stroke-width:1;" x1="170.8556" x2="160.8556" y1="322.6797" y2="322.6797"/><line style="stroke:#181818;stroke-width:1;" x1="160.8556" x2="160.8556" y1="322.6797" y2="345.4844"/><polygon fill="#181818" points="156.8556,335.4844,160.8556,345.4844,164.8556,335.4844,160.8556,339.4844" style="stroke:#181818;stroke-width:1;"/><line style="stroke:#181818;stroke-width:1;" x1="352.8626" x2="362.8626" y1="322.6797" y2="322.6797"/><line style="stroke:#181818;stroke-width:1;" x1="362.8626" x2="362.8626" y1="322.6797" y2="345.4844"/><polygon fill="#181818" points="358.8626,335.4844,362.8626,345.4844,366.8626,335.4844,362.8626,339.4844" style="stroke:#181818;stroke-width:1;"/><line style="stroke:#181818;stroke-width:1;" x1="160.8556" x2="160.8556" y1="379.4531" y2="397.4531"/><line style="stroke:#181818;stroke-width:1;" x1="160.8556" x2="249.8591" y1="397.4531" y2="397.4531"/><polygon fill="#181818" points="239.8591,393.4531,249.8591,397.4531,239.8591,401.4531,243.8591,397.4531" style="stroke:#181818;stroke-width:1;"/><line style="stroke:#181818;stroke-width:1;" x1="362.8626" x2="362.8626" y1="379.4531" y2="397.4531"/><line style="stroke:#181818;stroke-width:1;" x1="362.8626" x2="273.8591" y1="397.4531" y2="397.4531"/><polygon fill="#181818" points="283.8591,393.4531,273.8591,397.4531,283.8591,401.4531,279.8591,397.4531" style="stroke:#181818;stroke-width:1;"/><line style="stroke:#181818;stroke-width:1;" x1="261.8591" x2="261.8591" y1="289.875" y2="309.875"/><polygon fill="#181818" points="257.8591,299.875,261.8591,309.875,265.8591,299.875,261.8591,303.875" style="stroke:#181818;stroke-width:1;"/><line style="stroke:#181818;stroke-width:1;" x1="261.8591" x2="261.8591" y1="409.4531" y2="429.4531"/><polygon fill="#181818" points="257.8591,419.4531,261.8591,429.4531,265.8591,419.4531,261.8591,423.4531" style="stroke:#181818;stroke-width:1;"/><line style="stroke:#181818;stroke-width:1;" x1="261.8591" x2="261.8591" y1="463.4219" y2="483.4219"/><polygon fill="#181818" points="257.8591,473.4219,261.8591,483.4219,265.8591,473.4219,261.8591,477.4219" style="stroke:#181818;stroke-width:1;"/><line style="stroke:#181818;stroke-width:1;" x1="261.8591" x2="261.8591" y1="517.3906" y2="537.7773"/><polygon fill="#181818" points="257.8591,527.7773,261.8591,537.7773,265.8591,527.7773,261.8591,531.7773" style="stroke:#181818;stroke-width:1;"/><line style="stroke:#181818;stroke-width:1;" x1="261.8591" x2="261.8591" y1="571.7461" y2="591.7461"/><polygon fill="#181818" points="257.8591,581.7461,261.8591,591.7461,265.8591,581.7461,261.8591,585.7461" style="stroke:#181818;stroke-width:1;"/><line style="stroke:#181818;stroke-width:1;" x1="261.8591" x2="261.8591" y1="625.7148" y2="645.7148"/><polygon fill="#181818" points="257.8591,635.7148,261.8591,645.7148,265.8591,635.7148,261.8591,639.7148" style="stroke:#181818;stroke-width:1;"/><line style="stroke:#181818;stroke-width:1;" x1="99.4421" x2="99.4421" y1="754.0859" y2="774.0859"/><polygon fill="#181818" points="95.4421,764.0859,99.4421,774.0859,103.4421,764.0859,99.4421,768.0859" style="stroke:#181818;stroke-width:1;"/><line style="stroke:#181818;stroke-width:1;" x1="274.8064" x2="274.8064" y1="754.0859" y2="774.0859"/><polygon fill="#181818" points="270.8064,764.0859,274.8064,774.0859,278.8064,764.0859,274.8064,768.0859" style="stroke:#181818;stroke-width:1;"/><line style="stroke:#181818;stroke-width:1;" x1="437.2233" x2="437.2233" y1="754.0859" y2="774.0859"/><polygon fill="#181818" points="433.2233,764.0859,437.2233,774.0859,441.2233,764.0859,437.2233,768.0859" style="stroke:#181818;stroke-width:1;"/><line style="stroke:#181818;stroke-width:1;" x1="99.4421" x2="99.4421" y1="808.0547" y2="828.0547"/><polygon fill="#181818" points="95.4421,818.0547,99.4421,828.0547,103.4421,818.0547,99.4421,822.0547" style="stroke:#181818;stroke-width:1;"/><line style="stroke:#181818;stroke-width:1;" x1="274.8064" x2="274.8064" y1="808.0547" y2="828.0547"/><polygon fill="#181818" points="270.8064,818.0547,274.8064,828.0547,278.8064,818.0547,274.8064,822.0547" style="stroke:#181818;stroke-width:1;"/><line style="stroke:#181818;stroke-width:1;" x1="437.2233" x2="437.2233" y1="808.0547" y2="828.0547"/><polygon fill="#181818" points="433.2233,818.0547,437.2233,828.0547,441.2233,818.0547,437.2233,822.0547" style="stroke:#181818;stroke-width:1;"/><line style="stroke:#181818;stroke-width:1;" x1="261.8591" x2="261.8591" y1="723.6836" y2="748.0859"/><polygon fill="#181818" points="257.8591,738.0859,261.8591,748.0859,265.8591,738.0859,261.8591,742.0859" style="stroke:#181818;stroke-width:1;"/><line style="stroke:#181818;stroke-width:1;" x1="318.9299" x2="522.7182" y1="711.6836" y2="711.6836"/><polygon fill="#181818" points="518.7182,781.0703,522.7182,791.0703,526.7182,781.0703,522.7182,785.0703" style="stroke:#181818;stroke-width:1;"/><line style="stroke:#181818;stroke-width:1;" x1="522.7182" x2="522.7182" y1="711.6836" y2="866.0547"/><line style="stroke:#181818;stroke-width:1;" x1="522.7182" x2="273.8591" y1="866.0547" y2="866.0547"/><polygon fill="#181818" points="283.8591,862.0547,273.8591,866.0547,283.8591,870.0547,279.8591,866.0547" style="stroke:#181818;stroke-width:1;"/><line style="stroke:#181818;stroke-width:1;" x1="261.8591" x2="261.8591" y1="834.0547" y2="854.0547"/><polygon fill="#181818" points="257.8591,844.0547,261.8591,854.0547,265.8591,844.0547,261.8591,848.0547" style="stroke:#181818;stroke-width:1;"/><line style="stroke:#181818;stroke-width:1;" x1="261.8591" x2="261.8591" y1="679.6836" y2="699.6836"/><polygon fill="#181818" points="257.8591,689.6836,261.8591,699.6836,265.8591,689.6836,261.8591,693.6836" style="stroke:#181818;stroke-width:1;"/><line style="stroke:#181818;stroke-width:1;" x1="261.8591" x2="261.8591" y1="878.0547" y2="898.0547"/><polygon fill="#181818" points="257.8591,888.0547,261.8591,898.0547,265.8591,888.0547,261.8591,892.0547" style="stroke:#181818;stroke-width:1;"/><line style="stroke:#181818;stroke-width:1;" x1="261.8591" x2="261.8591" y1="127.9688" y2="147.9688"/><polygon fill="#181818" points="257.8591,137.9688,261.8591,147.9688,265.8591,137.9688,261.8591,141.9688" style="stroke:#181818;stroke-width:1;"/><line style="stroke:#181818;stroke-width:1;" x1="300.9072" x2="540.7182" y1="964.0234" y2="964.0234"/><polygon fill="#181818" points="536.7182,537.3906,540.7182,527.3906,544.7182,537.3906,540.7182,533.3906" style="stroke:#181818;stroke-width:1;"/><line style="stroke:#181818;stroke-width:1;" x1="540.7182" x2="540.7182" y1="115.9688" y2="964.0234"/><line style="stroke:#181818;stroke-width:1;" x1="540.7182" x2="273.8591" y1="115.9688" y2="115.9688"/><polygon fill="#181818" points="283.8591,111.9688,273.8591,115.9688,283.8591,119.9688,279.8591,115.9688" style="stroke:#181818;stroke-width:1;"/><line style="stroke:#181818;stroke-width:1;" x1="261.8591" x2="261.8591" y1="932.0234" y2="952.0234"/><polygon fill="#181818" points="257.8591,942.0234,261.8591,952.0234,265.8591,942.0234,261.8591,946.0234" style="stroke:#181818;stroke-width:1;"/><line style="stroke:#181818;stroke-width:1;" x1="261.8591" x2="261.8591" y1="83.9688" y2="103.9688"/><polygon fill="#181818" points="257.8591,93.9688,261.8591,103.9688,265.8591,93.9688,261.8591,97.9688" style="stroke:#181818;stroke-width:1;"/><line style="stroke:#181818;stroke-width:1;" x1="261.8591" x2="261.8591" y1="976.0234" y2="996.0234"/><polygon fill="#181818" points="257.8591,986.0234,261.8591,996.0234,265.8591,986.0234,261.8591,990.0234" style="stroke:#181818;stroke-width:1;"/><!--SRC=[dLB1RjD04BtxA-OO2mwcbw9425NYCtgnm6ajIbgb5gXI3oRPHavQ50DrQqTsSQIMf58E5WcGY7vDZfxnFp1hnpJG6v9bhsVclJVpTewNdK-mzT8otvhM4RmmzPsc_WQM7VTOKGujlMafLH8XBWJrhe5EGxhwM5EKfd5Ww9O2K2N7nziPHJxGoAbmGPe85MW-fDYhoO9qdb3xFHIPYhPPrJGLi2_mT9BdioW1yiuWNOovL8RuCUjG8N7D7EY6G3_7j1YlAEZIXL9Ko5HsuQJJUBkHUNFy76PzfcjDQ71BqGpInAMHZQxFRrRfaUTZowV1-NCLh5sZmIg-exAWd2HscHSUFOCd6iUBFufjkhfHPLl6tg71SOyxTvZX0KhBYnglp7enGvdYgN0O5RC68VQ3IdRHvG_WrCw2yyUmgii2Zw9vBbKj9bvvjh7nhsVfjuHQ2MHjRav8z_3h7TC8wWpNy-LrtLjwwQ9mSYyApMNt1fvg3ysexpTVvmVPT6-1Kv5v8M3YanD8N-dN1ECkdKY3mdJwlVO71VgERZPAB4Lt3FeF83fd-6M2FnXahyFNG6nrsUTVhhST78Oqc46vMIMeM5fujslkoOkyt-gHJPqFgjpt_OFV]--></g></svg>